<?xml version="1.0" encoding="utf-8"?>
<!-- Generator: Adobe Illustrator 16.0.0, SVG Export Plug-In . SVG Version: 6.00 Build 0)  -->
<!DOCTYPE svg PUBLIC "-//W3C//DTD SVG 1.1//EN" "http://www.w3.org/Graphics/SVG/1.1/DTD/svg11.dtd">
<svg version="1.1" id="Layer_1" xmlns="http://www.w3.org/2000/svg" xmlns:xlink="http://www.w3.org/1999/xlink" x="0px" y="0px"
	 width="460.942px" height="42.995px" viewBox="0 0 460.942 42.995" enable-background="new 0 0 460.942 42.995"
	 xml:space="preserve">
<path fill="#FFFFFF" d="M0.649,20.747c0.998,0,2.071,0.003,3.176,0.007c2.621,0.009,5.331,0.018,7.656-0.017
	c5.666-0.072,9.71,1.041,13.944,3.872c3.535,2.363,10.494,5.677,17.392,1.315c3.215-2.03,5.944-1.77,8.112,0.775
	c1.574,1.849,3.685,2.974,5.521,2.905c1.87-0.054,3.763,0.056,5.594,0.165c4.713,0.279,9.167,0.545,13.329-1.847
	c1.629-0.936,3.315-0.822,4.804-0.718c0.613,0.042,1.193,0.082,1.741,0.051c2.138-0.114,3.705,0.998,5.097,1.984
	c1.066,0.756,1.999,1.408,2.934,1.382c2.445-0.07,4.918,0.037,7.311,0.142c5.67,0.247,11.025,0.481,16.315-1.415
	c5.777-2.07,10.322-1.389,14.3,2.145c2.946,2.617,5.905,1.443,7.867-0.003c5.974-4.399,10.109-4.529,16.39-0.511
	c2.06,1.318,4.38,1.443,6.051,0.325c2.751-1.841,5.582-2.747,8.23-3.452c0.37-0.099,0.764-0.022,1.07,0.207
	c1.551,1.16,2.106,2.724,2.597,4.104c0.167,0.468,0.324,0.911,0.512,1.32c2.533,5.513,4.45,6.739,9.767,6.238
	c3.566-0.335,4.897-3.033,6.438-6.158c0.188-0.381,0.375-0.762,0.567-1.137c0.797-1.56,1.948-3.393,3.794-3.734
	c1.882-0.35,3.677,0.989,5.181,2.344l0.406,0.367c2.429,2.205,4.058,3.503,6.808,2.47c0.894-0.336,1.298-1.021,1.882-2.109
	c0.397-0.739,0.847-1.578,1.584-2.276c1.668-1.581,3.486-3.005,5.447-2.729c1.899,0.269,3.18,2.066,4.084,3.603
	c1.239,2.108,2.665,3.28,4.123,3.39c1.772,0.135,3.328-1.31,4.327-2.543c2.196-2.708,3.734-4.178,5.57-4.151
	c1.823,0.02,3.3,1.481,5.388,4.172c1.386,1.786,2.479,2.64,3.439,2.687c0.938,0.058,2.133-0.705,3.643-2.3
	c0.777-0.822,1.464-1.827,2.035-2.703c1.024-1.57,2.386-2.462,3.833-2.512c1.032-0.038,2.567,0.34,4.071,2.331
	c0.319,0.423,0.707,0.828,1.118,1.256c0.704,0.735,1.433,1.495,1.93,2.464c0.929,1.813,1.974,1.789,4.455,0.81
	c0.989-0.391,1.918-1.08,2.9-1.81c0.46-0.341,0.919-0.681,1.389-0.996c1.998-1.34,3.537-2.092,5.05-1.706
	c1.547,0.396,2.551,1.827,3.763,4.165l0.137,0.265c0.569,1.102,1.106,2.143,1.776,3.072c1.688,2.341,3.731,3.644,5.909,3.767
	c2.29,0.125,4.592-1.02,6.684-3.32c1.065-1.171,1.781-2.517,2.539-3.94c0.244-0.46,0.489-0.92,0.747-1.377
	c0.984-1.744,2.434-2.862,4.081-3.148c1.5-0.261,3.039,0.205,4.324,1.317c4.303,3.72,5.231,3.764,9.96,0.424
	c3.936-2.779,9.436-2.313,13.076,1.11c3.814,3.589,6.95,3.729,10.164,0.451c3.829-3.902,8.067-3.196,11.332-2.145l0.129,0.042
	c2.831,0.913,5.769,1.854,8.421,1.677c2.159-0.147,4.377-0.003,6.521,0.137c5.795,0.375,11.267,0.73,15.732-4.264
	c0.287-0.321,0.721-0.472,1.143-0.399c2.341,0.401,4.646,1.062,6.875,1.701c3.968,1.138,7.707,2.21,11.752,1.998l0.154-0.008
	c5.049-0.27,9.818-0.524,13.57-4.148c2.904-2.803,6.412-1.019,7.91-0.257c6.027,3.064,12.099,2.535,17.561-1.533
	c4.227-3.147,8.829-4.421,14.924-4.129c2.842,0.136,5.756,0.102,8.577,0.069c1.12-0.013,2.24-0.023,3.36-0.026V0H0v20.955
	C0.192,20.834,0.406,20.747,0.649,20.747z"/>
<path fill="#F05050" d="M460.942,20.251c-1.12,0.003-2.24,0.013-3.36,0.026c-2.821,0.033-5.735,0.067-8.577-0.069
	c-6.095-0.292-10.697,0.982-14.924,4.129c-5.462,4.068-11.533,4.598-17.561,1.533c-1.498-0.762-5.006-2.546-7.91,0.257
	c-3.752,3.624-8.521,3.878-13.57,4.148l-0.154,0.008c-4.045,0.212-7.784-0.86-11.752-1.998c-2.229-0.639-4.534-1.3-6.875-1.701
	c-0.422-0.073-0.855,0.078-1.143,0.399c-4.466,4.994-9.938,4.639-15.732,4.264c-2.145-0.14-4.362-0.284-6.521-0.137
	c-2.652,0.178-5.59-0.764-8.421-1.677l-0.129-0.042c-3.265-1.052-7.503-1.757-11.332,2.145c-3.214,3.278-6.35,3.138-10.164-0.451
	c-3.641-3.423-9.141-3.89-13.076-1.11c-4.729,3.339-5.657,3.295-9.96-0.424c-1.285-1.112-2.824-1.578-4.324-1.317
	c-1.647,0.286-3.097,1.404-4.081,3.148c-0.258,0.457-0.503,0.917-0.747,1.377c-0.758,1.424-1.474,2.769-2.539,3.94
	c-2.092,2.301-4.394,3.446-6.684,3.32c-2.178-0.124-4.221-1.426-5.909-3.767c-0.67-0.929-1.207-1.97-1.776-3.072l-0.137-0.265
	c-1.212-2.337-2.216-3.768-3.763-4.165c-1.513-0.386-3.052,0.365-5.05,1.706c-0.47,0.315-0.929,0.655-1.389,0.996
	c-0.982,0.73-1.911,1.419-2.9,1.81c-2.481,0.979-3.526,1.003-4.455-0.81c-0.497-0.97-1.226-1.729-1.93-2.464
	c-0.411-0.428-0.799-0.833-1.118-1.256c-1.504-1.991-3.039-2.369-4.071-2.331c-1.447,0.05-2.809,0.941-3.833,2.512
	c-0.57,0.875-1.258,1.881-2.035,2.703c-1.509,1.595-2.704,2.358-3.643,2.3c-0.96-0.047-2.053-0.901-3.439-2.687
	c-2.088-2.69-3.564-4.152-5.388-4.172c-1.836-0.027-3.375,1.443-5.57,4.151c-1,1.233-2.555,2.678-4.327,2.543
	c-1.458-0.109-2.883-1.281-4.123-3.39c-0.904-1.536-2.185-3.334-4.084-3.603c-1.96-0.276-3.778,1.148-5.447,2.729
	c-0.737,0.699-1.188,1.537-1.584,2.276c-0.584,1.088-0.988,1.773-1.882,2.109c-2.75,1.033-4.379-0.265-6.808-2.47l-0.406-0.367
	c-1.504-1.355-3.299-2.693-5.181-2.344c-1.846,0.341-2.998,2.174-3.794,3.734c-0.192,0.375-0.379,0.756-0.567,1.137
	c-1.542,3.125-2.873,5.823-6.438,6.158c-5.317,0.501-7.233-0.725-9.767-6.238c-0.188-0.409-0.345-0.852-0.512-1.32
	c-0.49-1.38-1.046-2.945-2.597-4.104c-0.306-0.229-0.7-0.306-1.07-0.207c-2.649,0.705-5.479,1.61-8.23,3.452
	c-1.671,1.118-3.991,0.993-6.051-0.325c-6.28-4.018-10.416-3.888-16.39,0.511c-1.962,1.446-4.921,2.62-7.867,0.003
	c-3.979-3.534-8.523-4.214-14.3-2.145c-5.29,1.896-10.645,1.662-16.315,1.415c-2.393-0.105-4.866-0.212-7.311-0.142
	c-0.935,0.026-1.867-0.626-2.934-1.382c-1.392-0.986-2.958-2.098-5.097-1.984c-0.548,0.031-1.128-0.008-1.741-0.051
	c-1.489-0.104-3.175-0.218-4.804,0.718c-4.162,2.392-8.616,2.126-13.329,1.847c-1.832-0.109-3.725-0.218-5.594-0.165
	c-1.836,0.069-3.947-1.057-5.521-2.905c-2.168-2.545-4.897-2.805-8.112-0.775c-6.898,4.362-13.857,1.047-17.392-1.315
	c-4.234-2.831-8.278-3.943-13.944-3.872c-2.325,0.035-5.035,0.025-7.656,0.017c-1.104-0.003-2.178-0.007-3.176-0.007
	c-0.243,0-0.457,0.087-0.649,0.208v2.085c0.192,0.12,0.406,0.208,0.649,0.208c0.995,0,2.066,0.003,3.167,0.007
	c2.631,0.009,5.352,0.017,7.7-0.017c5.095-0.084,8.744,0.926,12.519,3.45c4.04,2.701,12.024,6.469,20.118,1.351
	c2.646-1.672,3.906-0.853,4.873,0.283c2.085,2.449,4.896,3.854,7.501,3.783c1.756-0.055,3.594,0.056,5.37,0.161
	c4.877,0.29,9.914,0.589,14.723-2.175c0.969-0.557,2.09-0.481,3.386-0.391c0.665,0.046,1.349,0.093,2.055,0.053
	c1.257-0.071,2.349,0.705,3.508,1.527c1.251,0.887,2.652,1.881,4.452,1.842c2.357-0.069,4.782,0.038,7.129,0.141
	c5.662,0.247,11.516,0.503,17.268-1.559c4.891-1.752,8.53-1.242,11.796,1.66c3.226,2.865,7.239,2.916,11.01,0.141
	c5.126-3.774,8.168-3.867,13.56-0.418c2.911,1.862,6.277,1.976,8.789,0.298c2.234-1.496,4.592-2.314,6.842-2.939
	c0.641,0.676,0.955,1.56,1.31,2.558c0.177,0.5,0.361,1.017,0.596,1.527c2.983,6.491,5.852,8.285,12.271,7.683
	c4.957-0.466,6.811-4.225,8.447-7.541c0.183-0.371,0.366-0.741,0.552-1.105c0.764-1.495,1.444-2.307,2.022-2.414
	c0.614-0.118,1.644,0.472,3.054,1.744l0.398,0.36c2.249,2.042,5.047,4.583,9.368,2.959c1.818-0.683,2.587-2.115,3.205-3.266
	c0.338-0.629,0.657-1.223,1.102-1.645c1.573-1.491,2.685-2.164,3.377-2.068c0.63,0.089,1.396,0.895,2.278,2.394
	c2.114,3.596,4.479,4.495,6.091,4.616c1.568,0.117,3.964-0.387,6.456-3.462c1.294-1.595,2.732-3.225,3.594-3.225
	c0.002,0,0.004,0,0.007,0c0.847,0.009,2.214,1.625,3.439,3.204c1.892,2.438,3.524,3.565,5.292,3.651
	c1.767,0.095,3.483-0.862,5.581-3.079c0.914-0.967,1.683-2.088,2.313-3.056c0.566-0.868,1.214-1.357,1.825-1.378
	c0.785-0.025,1.517,0.713,1.99,1.339c0.408,0.54,0.866,1.018,1.309,1.479c0.606,0.633,1.18,1.23,1.51,1.875
	c2.127,4.155,5.822,2.694,7.598,1.995c1.296-0.511,2.402-1.333,3.473-2.127c0.428-0.317,0.854-0.634,1.291-0.927
	c1.074-0.721,2.396-1.525,3.036-1.36c0.679,0.174,1.514,1.638,2.164,2.893l0.136,0.262c0.586,1.134,1.191,2.307,1.97,3.386
	c2.145,2.974,4.84,4.634,7.795,4.801c0.158,0.009,0.315,0.014,0.474,0.014c2.862,0,5.758-1.459,8.201-4.148
	c1.275-1.402,2.1-2.951,2.896-4.447c0.234-0.442,0.47-0.884,0.718-1.323c0.608-1.079,1.437-1.758,2.331-1.914
	c0.768-0.13,1.545,0.125,2.262,0.745c5.177,4.479,7.371,4.577,13.036,0.576c2.922-2.063,7.188-1.681,9.922,0.89
	c6.033,5.674,10.76,3.339,13.661,0.381c2.688-2.738,5.454-2.588,8.781-1.516l0.129,0.041c3.056,0.985,6.213,2.007,9.355,1.792
	c1.993-0.134,4.033-0.002,6.192,0.138c5.951,0.386,12.097,0.784,17.274-4.573c1.975,0.381,3.91,0.936,5.947,1.52
	c3.993,1.145,8.122,2.331,12.574,2.091l0.155-0.008c5.285-0.282,10.75-0.574,15.173-4.846c1.198-1.157,2.519-1.111,5.041,0.173
	c6.831,3.475,14.001,2.851,20.187-1.757c3.781-2.814,7.759-3.907,13.312-3.637c2.916,0.139,5.869,0.105,8.726,0.071
	c1.11-0.013,2.221-0.023,3.331-0.026V20.251z"/>
</svg>
