<?xml version="1.0" encoding="utf-8"?>
<!-- Generator: Adobe Illustrator 16.0.0, SVG Export Plug-In . SVG Version: 6.00 Build 0)  -->
<!DOCTYPE svg PUBLIC "-//W3C//DTD SVG 1.1//EN" "http://www.w3.org/Graphics/SVG/1.1/DTD/svg11.dtd">
<svg version="1.1" id="Layer_3" xmlns="http://www.w3.org/2000/svg" xmlns:xlink="http://www.w3.org/1999/xlink" x="0px" y="0px"
	 width="462.234px" height="45.225px" viewBox="0 0 462.234 45.225" enable-background="new 0 0 462.234 45.225"
	 xml:space="preserve">
<path fill-rule="evenodd" clip-rule="evenodd" fill="#FFFFFF" d="M462.211,20.577c-0.213,1.097-1.213,0.887-2.006,0.953
	c-1.768,0.149-4.334-0.563-5.724-1.667c-6.143-4.882-12.594-5.221-19.45-1.311c-3.396,1.937-6.701,0.984-9.707-1.346
	c-6.869-5.325-16.257-5.03-23.157,0.166c-3.317,2.498-7.571,1.799-10.916,0.124c-8.296-4.154-16.316-4.25-25.006-1.105
	c-3.605,1.305-8.029,1.432-11.815-1.644c-3.34-2.713-7.046-2.281-10.434,0.644c-4.04,3.488-8.767,3.395-12.751-0.102
	c-3.469-3.043-7.194-2.931-11.138-1.094c-5.515,2.57-7.728,1.862-10.815-3.186c-2.143-3.502-5.296-5.603-9.454-5.556
	c-3.82,0.043-5.814,2.846-7.453,5.837c-3.011,5.495-6.219,6.083-11.235,1.979c-3.306-2.705-7.963-2.895-10.777,0.339
	c-3.039,3.492-6.728,3.021-10.52,3.061c-2.397,0.026-2.909-1.72-3.628-3.448c-1.294-3.108-2.91-6.051-5.934-7.826
	c-4.233-2.485-8.718-1.089-12.525,3.777c-3.005,3.84-9.664,3.995-12.229-0.018c-2.197-3.437-4.759-5.341-8.989-4.793
	c-4.746,0.615-7.316,3.744-9.074,7.672c-2.613,5.839-8.817,6.967-13.58,2.302c-3.772-3.694-7.909-3.913-11.873-0.629
	c-4.58,3.794-9.174,2.914-12.01-2.334c-1.66-3.073-3.675-5.534-7.617-5.505c-4.192,0.03-7.283,1.639-9.4,5.405
	c-2.706,4.813-5.596,5.386-10.556,3.125c-3.937-1.794-7.88-2.196-11.518,1.26c-3.313,3.148-9.001,2.972-12.581-0.155
	c-3.534-3.087-7.214-3.233-10.913-0.606c-4.063,2.886-8.505,3.052-12.705,1.232c-7.25-3.142-14.301-2.678-21.291,0.208
	c-5.634,2.326-10.675,3.928-15.887-1.345c-3.126-3.162-16.476-1.638-19.848,1.598c-3.517,3.375-6.793,3.968-11.541,1.619
	c-6.182-3.06-12.991-3.515-18.559,1.907C5.324,22.325,3,21.732,0,22.091v23.134L462.234,45l0.013-24.975l-0.006,0.111
	C462.234,20.241,462.234,20.456,462.211,20.577z"/>
<g>
	<path fill-rule="evenodd" clip-rule="evenodd" fill="#F05050" d="M0,19.094c2.191,0.489,4.263,0.405,6.16-1.255
		c6.635-5.805,14.106-5.309,21.462-1.884c3.269,1.522,5.498,1.222,8.054-1.051c6.063-5.394,18.805-5.557,25.369-0.462
		c3.071,2.384,6.421,1.625,9.418,0.303c8.622-3.802,17.073-4.737,25.993-0.744c2.91,1.303,6.382,0.977,9.434-1.258
		c4.501-3.296,9.372-3.03,13.786,0.448c3.507,2.763,6.906,2.872,10.227-0.125c4.071-3.673,8.925-3.313,13.064-1.27
		c4.299,2.123,6.136,1,8.367-2.626c5.11-8.304,15.748-7.935,20.705,0.5c2.493,4.243,4.952,4.735,8.663,1.734
		c4.575-3.699,10.269-3.415,14.694,0.734c3.99,3.74,7.439,3.089,9.932-1.741c2.776-5.383,6.662-8.889,13.324-8.711
		c3.868,0.104,6.107,1.934,8.144,4.777c2.746,3.836,6.115,3.944,9.246,0.457c7.167-7.984,15.838-6.989,21.157,2.427
		c3.255,5.763,6.582,6.352,11.557,2.046c4.152-3.594,9.624-3.817,14.056-0.064c3.312,2.803,5.259,2.417,7.374-1.339
		c5.374-9.542,15.661-9.696,21.284-0.212c2.033,3.429,4.066,3.775,7.294,2.195c5.252-2.573,10.238-2.409,14.729,1.815
		c2.86,2.688,5.85,1.738,8.555-0.191c5.628-4.013,8.796-4.252,14.498-0.642c3.256,2.062,6.772,1.719,10.037,0.58
		c8.05-2.808,15.873-3.01,23.678,0.734c4.41,2.115,8.409,2.867,12.68-1.177c4.245-4.021,17.521-3.18,22.646,1.025
		c3.414,2.803,6.12,2.991,10.295,1.021c6.259-2.953,12.982-2.638,18.963,1.653c1.352,0.97,3.736,2.194,5.582,2.132
		c1.119-0.038,2.058,0.263,1.786,1.653c-0.213,1.097-1.213,0.887-2.006,0.953c-1.768,0.149-4.334-0.563-5.724-1.667
		c-6.143-4.882-12.594-5.221-19.45-1.311c-3.396,1.937-6.701,0.984-9.707-1.346c-6.869-5.325-16.257-5.03-23.157,0.166
		c-3.317,2.498-7.571,1.799-10.916,0.124c-8.296-4.154-16.316-4.25-25.006-1.105c-3.605,1.305-8.029,1.432-11.815-1.644
		c-3.34-2.713-7.046-2.281-10.434,0.644c-4.04,3.488-8.767,3.395-12.751-0.102c-3.469-3.043-7.194-2.931-11.138-1.094
		c-5.515,2.57-7.728,1.862-10.815-3.186c-2.143-3.502-5.296-5.603-9.454-5.556c-3.82,0.043-5.814,2.846-7.453,5.837
		c-3.011,5.495-6.219,6.083-11.235,1.979c-3.306-2.705-7.963-2.895-10.777,0.339c-3.039,3.492-6.728,3.021-10.52,3.061
		c-2.397,0.026-2.909-1.72-3.628-3.448c-1.294-3.108-2.91-6.051-5.934-7.826c-4.233-2.485-8.718-1.089-12.525,3.777
		c-3.005,3.84-9.664,3.995-12.229-0.018c-2.197-3.437-4.759-5.341-8.989-4.793c-4.746,0.615-7.316,3.744-9.074,7.672
		c-2.613,5.839-8.817,6.967-13.58,2.302c-3.772-3.694-7.909-3.913-11.873-0.629c-4.58,3.794-9.174,2.914-12.01-2.334
		c-1.66-3.073-3.675-5.534-7.617-5.505c-4.192,0.03-7.283,1.639-9.4,5.405c-2.706,4.813-5.596,5.386-10.556,3.125
		c-3.937-1.794-7.88-2.196-11.518,1.26c-3.313,3.148-9.001,2.972-12.581-0.155c-3.534-3.087-7.214-3.233-10.913-0.606
		c-4.063,2.886-8.505,3.052-12.705,1.232c-7.25-3.142-14.301-2.678-21.291,0.208c-5.634,2.326-10.675,3.928-15.887-1.345
		c-3.126-3.162-16.476-1.638-19.848,1.598c-3.517,3.375-6.793,3.968-11.541,1.619c-6.182-3.06-12.979-3.515-18.547,1.907
		C5.329,22.332,2.555,21.729,0,22.094C0,21.094,0,20.094,0,19.094z"/>
</g>
</svg>
