<?xml version="1.0" encoding="utf-8"?>
<!-- Generator: Adobe Illustrator 16.0.0, SVG Export Plug-In . SVG Version: 6.00 Build 0)  -->
<!DOCTYPE svg PUBLIC "-//W3C//DTD SVG 1.1//EN" "http://www.w3.org/Graphics/SVG/1.1/DTD/svg11.dtd">
<svg version="1.1" id="Layer_1" xmlns="http://www.w3.org/2000/svg" xmlns:xlink="http://www.w3.org/1999/xlink" x="0px" y="0px"
	 width="294px" height="44px" viewBox="0 0 294 44" enable-background="new 0 0 294 44" xml:space="preserve">
<g>
	<path fill="#FFFFFF" d="M269.498,18.85c-3.71,2.177-7.33,1.762-10.193-1.172c-4.256-4.364-9.458-4.014-14.971-3.644
		c-1.105,0.075-2.207,0.148-3.296,0.183c-1.364,0.043-3.79,0.938-4.595,3.117c-0.615,1.666-1.734,1.647-2.6,1.655
		c-0.275,0.002-0.986-0.006-1.161-0.006c-0.499,0-0.753-0.11-1.085-0.601c-0.174-0.256-0.282-0.607-0.429-0.828
		c-0.641-0.961-1.236-1.977-1.812-2.96c-1.271-2.17-2.471-4.22-4.132-5.756c-2.4-2.218-4.979-3.221-7.452-2.9
		c-2.887,0.375-5.629,2.483-7.929,6.099c-1.377,2.165-2.652,3.678-4.394,4.028c-1.805,0.36-3.71-0.636-6.021-2.244
		c-4.052-2.82-8.007-2.511-11.754,0.917c-2.157,1.974-4.967,2.839-7.714,2.372c-2.688-0.457-4.998-2.147-6.338-4.638
		c-2.716-5.052-5.324-7.906-10.556-7.532c-3.211,0.228-5.182,1.949-7.319,4.651c-1.55,1.96-4.594,3.061-7.573,2.747
		c-2.311-0.246-4.101-1.331-4.91-2.977c-2.227-4.528-5.646-4.988-10.094-4.285c-4.211,0.666-6.596,4.317-8.203,7.424
		c-1.572,3.038-3.707,4.872-6.173,5.301c-2.317,0.405-4.73-0.484-6.975-2.569c-4.602-4.273-7.111-4.364-12.21-0.44
		c-1.56,1.199-3.761,1.643-6.032,1.222c-2.332-0.433-4.362-1.739-5.432-3.494c-2.353-3.858-5.386-6.025-8.542-6.101
		c-3.147-0.087-6.259,1.928-8.776,5.642c-3.03,4.472-5.86,5.306-11.649,3.435c-9.667-3.125-16.624-2.14-22.555,3.197
		c-2.196,1.973-5.067,2.236-8.086,0.738c-8.557-4.247-14.845-3.712-20.385,1.734c-1.291,1.268-3.124,1.934-5.26,1.934
		c-0.431,0-2.121-0.027-2.893-0.082V44h294V22.035c-2.345,0-4.772-0.729-6.649-2.214C282.773,16.195,274.763,15.76,269.498,18.85z"
		/>
</g>
<path fill="#F05050" d="M288.593,18.252c-5.169-4.092-14.188-4.599-20.106-1.127c-2.92,1.713-5.529,1.431-7.75-0.844
	c-4.902-5.026-10.819-4.626-16.537-4.242c-1.082,0.073-2.159,0.146-3.225,0.179c-1.967,0.062-5.299,1.298-6.417,4.447
	c-0.137,0.384-0.148,0.415-0.994,0.341c-0.12-0.011-0.252-0.017-0.382-0.024c-0.117-0.217-0.262-0.404-0.351-0.537
	c-0.608-0.913-1.188-1.903-1.75-2.861c-1.289-2.201-2.621-4.476-4.5-6.214c-2.849-2.633-5.983-3.814-9.066-3.415
	c-3.494,0.453-6.73,2.876-9.359,7.008c-1.288,2.023-2.215,2.963-3.1,3.141c-0.952,0.187-2.248-0.368-4.485-1.925
	c-4.856-3.378-9.781-3.003-14.246,1.083c-1.699,1.554-3.895,2.24-6.029,1.876c-2.076-0.353-3.866-1.67-4.911-3.614
	c-2.371-4.41-5.475-9.071-12.459-8.58c-3.931,0.279-6.339,2.363-8.746,5.406c-1.124,1.42-3.505,2.244-5.792,1.999
	c-1.614-0.172-2.827-0.854-3.327-1.871c-2.938-5.973-7.816-6.072-12.202-5.377c-5.097,0.806-7.843,4.956-9.667,8.48
	c-1.274,2.462-2.913,3.932-4.74,4.25c-1.681,0.293-3.502-0.421-5.271-2.064c-5.323-4.943-8.917-5.079-14.79-0.56
	c-1.093,0.84-2.757,1.153-4.447,0.841c-1.782-0.331-3.311-1.292-4.089-2.569c-2.719-4.459-6.342-6.967-10.202-7.06
	c-3.851-0.113-7.567,2.223-10.479,6.519c-2.511,3.706-4.438,4.252-9.379,2.653C53.321,11.5,43.74,9.6,35.286,17.206
	c-1.98,1.78-4.279,1.218-5.859,0.434c-5.859-2.909-14.585-5.854-22.676,2.098C5.216,21.246,1.252,21.182,0,21.009v2.007
	c0.771,0.055,2.461,0.082,2.893,0.082c2.137,0,3.97-0.666,5.26-1.934c5.54-5.446,11.828-5.98,20.385-1.734
	c3.019,1.498,5.89,1.235,8.086-0.738c5.931-5.337,12.888-6.322,22.555-3.197c5.79,1.872,8.62,1.037,11.649-3.435
	c2.518-3.713,5.629-5.729,8.776-5.642c3.156,0.076,6.189,2.243,8.542,6.101c1.07,1.755,3.101,3.061,5.432,3.494
	c2.271,0.42,4.472-0.023,6.032-1.222c5.099-3.923,7.608-3.833,12.21,0.44c2.245,2.084,4.658,2.974,6.975,2.569
	c2.466-0.43,4.601-2.263,6.173-5.301c1.607-3.106,3.991-6.758,8.203-7.424c4.448-0.703,7.868-0.244,10.094,4.285
	c0.81,1.646,2.599,2.731,4.91,2.977c2.979,0.314,6.022-0.787,7.573-2.747c2.138-2.703,4.108-4.424,7.319-4.651
	c5.232-0.374,7.84,2.479,10.556,7.532c1.34,2.491,3.65,4.182,6.338,4.638c2.747,0.467,5.557-0.398,7.714-2.372
	c3.747-3.428,7.702-3.737,11.754-0.917c2.311,1.608,4.216,2.604,6.021,2.244c1.742-0.35,3.017-1.863,4.394-4.028
	c2.3-3.615,5.042-5.724,7.929-6.099c2.473-0.321,5.051,0.682,7.452,2.9c1.661,1.536,2.861,3.585,4.132,5.756
	c0.576,0.983,1.171,1.999,1.812,2.96c0.147,0.22,0.255,0.571,0.429,0.828c0.332,0.491,0.587,0.601,1.085,0.601
	c0.175,0,0.886,0.008,1.161,0.006c0.866-0.008,1.984,0.011,2.6-1.655c0.805-2.18,3.231-3.074,4.595-3.117
	c1.089-0.034,2.19-0.108,3.296-0.183c5.513-0.37,10.715-0.72,14.971,3.644c2.863,2.934,6.483,3.349,10.193,1.172
	c5.265-3.09,13.275-2.655,17.853,0.97c1.877,1.486,4.305,2.214,6.649,2.214v-2.002C292.028,20.035,290.123,19.464,288.593,18.252z"
	/>
</svg>
