<?xml version="1.0" encoding="utf-8"?>
<!-- Generator: Adobe Illustrator 16.0.0, SVG Export Plug-In . SVG Version: 6.00 Build 0)  -->
<!DOCTYPE svg PUBLIC "-//W3C//DTD SVG 1.1//EN" "http://www.w3.org/Graphics/SVG/1.1/DTD/svg11.dtd">
<svg version="1.1" id="Layer_1" xmlns="http://www.w3.org/2000/svg" xmlns:xlink="http://www.w3.org/1999/xlink" x="0px" y="0px"
	 width="294px" height="43px" viewBox="0 0 294 43" enable-background="new 0 0 294 43" xml:space="preserve">
<g>
	<path fill="#FFFFFF" d="M9.98,20.99c6.255-0.12,11.154,0.495,16.252,3.92c6.338,4.258,12.143,4.553,17.255,0.876
		c2.149-1.546,5.511-1.671,7.782,1.079c1.472,1.785,3.337,2.955,4.752,2.98c1.483,0.028,2.97,0.096,4.459,0.164
		c4.4,0.203,8.948,0.412,13.308-0.513c6.472-1.37,9.71-0.896,13.019,5.591c2.014,3.95,4.731,5.422,9.081,4.925
		c4.121-0.472,5.596-3.353,7.23-7.372c0.774-1.904,2.243-3.227,4.029-3.629c1.615-0.362,3.265,0.092,4.53,1.25
		c2.942,2.696,4.702,4.048,5.998,3.959c1.275-0.086,2.704-1.536,5.059-4.362c1.75-2.1,3.384-3.071,5.015-2.969
		c1.624,0.103,3.126,1.271,4.596,3.57c1.514,2.37,2.891,3.557,4.211,3.629c1.342,0.065,2.862-0.98,4.667-3.218
		c0.208-0.258,0.405-0.525,0.604-0.792c0.453-0.61,0.921-1.24,1.508-1.792c1.207-1.132,2.398-1.637,3.554-1.5
		c1.117,0.133,2.113,0.858,2.962,2.154c0.568,0.866,1.279,1.69,1.9,2.383c1.711,1.908,2.964,2.748,4.054,2.748
		c1.079-0.007,2.292-0.852,3.936-2.737c0.228-0.261,0.426-0.548,0.625-0.834c0.276-0.395,0.561-0.803,0.92-1.182
		c1.257-1.324,2.646-2.543,4.245-2.475c1.646,0.067,3.015,1.494,4.25,3.026c2.399,2.979,3.767,4.138,5.045,4.274
		c1.24,0.129,2.749-0.66,5.547-2.924c2.382-1.927,4.053-2.604,5.586-2.267c1.494,0.329,2.667,1.558,3.924,4.11
		c0.16,0.324,0.315,0.649,0.471,0.974c1.497,3.128,2.79,5.829,6.688,5.99c5.36,0.215,7.147-1.157,9.582-7.375l0.214-0.557
		c0.693-1.817,1.479-3.876,3.356-4.59c1.208-0.459,2.604-0.262,4.269,0.603c3.876,2.017,7.985,1.962,12.338,1.904
		c1.387-0.019,2.82-0.038,4.238,0.017c4.021,0.159,7.22-0.919,9.763-3.285c2.457-2.284,5.07-2.485,8.222-0.639
		c7.019,4.115,13.801,1.362,18.253-1.672c3.755-2.559,7.416-3.601,12.252-3.467c3.468,0.092,7.008,0.07,10.431,0.049
		c1.348-0.008,2.695-0.015,4.042-0.017V0H0v21c0.882,0,3.265,0.004,4.147,0.009C6.062,21.019,8.042,21.027,9.98,20.99z"/>
</g>
<path fill="#F05050" d="M294,21.002c-1.347,0.002-2.694,0.008-4.042,0.017c-3.423,0.021-6.963,0.042-10.431-0.049
	c-4.836-0.133-8.497,0.909-12.252,3.467c-4.452,3.034-11.234,5.788-18.253,1.672c-3.152-1.846-5.765-1.645-8.222,0.639
	c-2.543,2.365-5.742,3.444-9.763,3.285c-1.417-0.055-2.851-0.036-4.238-0.017c-4.353,0.058-8.462,0.113-12.338-1.904
	c-1.665-0.865-3.061-1.062-4.269-0.603c-1.878,0.714-2.664,2.773-3.356,4.59l-0.214,0.557c-2.435,6.217-4.222,7.589-9.582,7.375
	c-3.898-0.161-5.191-2.862-6.688-5.99c-0.155-0.325-0.311-0.65-0.471-0.974c-1.256-2.552-2.43-3.782-3.924-4.11
	c-1.533-0.336-3.204,0.34-5.586,2.267c-2.799,2.264-4.307,3.054-5.547,2.924c-1.278-0.137-2.646-1.295-5.045-4.274
	c-1.234-1.532-2.604-2.959-4.25-3.026c-1.598-0.068-2.988,1.151-4.245,2.475c-0.359,0.379-0.644,0.787-0.92,1.182
	c-0.199,0.286-0.397,0.573-0.625,0.834c-1.643,1.885-2.856,2.729-3.936,2.737c-1.09,0-2.343-0.84-4.054-2.748
	c-0.621-0.692-1.333-1.517-1.9-2.383c-0.849-1.296-1.846-2.021-2.962-2.154c-1.156-0.137-2.347,0.368-3.554,1.5
	c-0.587,0.551-1.056,1.182-1.508,1.792c-0.199,0.267-0.396,0.534-0.604,0.792c-1.805,2.238-3.326,3.284-4.667,3.218
	c-1.32-0.073-2.697-1.26-4.211-3.629c-1.47-2.3-2.973-3.468-4.596-3.57c-1.63-0.103-3.265,0.869-5.015,2.969
	c-2.355,2.826-3.784,4.276-5.059,4.362c-1.296,0.089-3.055-1.263-5.998-3.959c-1.265-1.158-2.915-1.613-4.53-1.25
	c-1.786,0.402-3.254,1.725-4.029,3.629c-1.634,4.019-3.109,6.9-7.23,7.372c-4.35,0.498-7.066-0.975-9.081-4.925
	c-3.308-6.487-6.547-6.961-13.019-5.591c-4.36,0.924-8.908,0.715-13.308,0.513c-1.489-0.068-2.976-0.136-4.459-0.164
	c-1.415-0.026-3.281-1.196-4.752-2.98c-2.271-2.75-5.632-2.625-7.782-1.079c-5.112,3.676-10.917,3.382-17.255-0.876
	c-5.098-3.425-9.997-4.04-16.252-3.92c-1.939,0.037-3.919,0.028-5.833,0.019C3.265,21.004,0.882,21,0,21v2
	c0.879,0,3.258,0.004,4.137,0.009c1.927,0.008,3.918,0.019,5.882-0.019c5.865-0.12,10.437,0.448,15.098,3.58
	c7.002,4.704,13.757,4.996,19.538,0.84c1.396-1.004,3.506-1.168,5.071,0.728c1.884,2.284,4.224,3.669,6.258,3.708
	c1.465,0.027,2.934,0.095,4.404,0.162c4.527,0.207,9.204,0.423,13.813-0.554c6.312-1.337,8.234-0.53,10.823,4.543
	c2.109,4.136,5.101,6.108,9.331,6.108c0.564,0,1.149-0.035,1.758-0.104c5.617-0.644,7.413-5.059,8.855-8.606
	c0.524-1.289,1.478-2.175,2.615-2.431c0.98-0.223,1.954,0.054,2.739,0.774c3.504,3.21,5.424,4.613,7.483,4.48
	c2.009-0.135,3.684-1.745,6.46-5.077c1.294-1.553,2.412-2.306,3.353-2.253c0.929,0.059,1.95,0.951,3.037,2.651
	c1.912,2.992,3.75,4.437,5.787,4.549c2.052,0.108,4.065-1.146,6.334-3.96c0.224-0.278,0.439-0.566,0.653-0.854
	c0.419-0.564,0.814-1.097,1.271-1.525c0.52-0.488,1.279-1.055,1.949-0.973c0.503,0.06,1.017,0.485,1.527,1.265
	c0.641,0.978,1.414,1.874,2.084,2.622c2.157,2.404,3.785,3.463,5.557,3.412c1.725-0.012,3.349-1.036,5.428-3.422
	c0.287-0.328,0.526-0.671,0.758-1.003c0.244-0.35,0.475-0.68,0.731-0.95c1.24-1.308,2.063-1.908,2.712-1.854
	c0.668,0.027,1.523,0.731,2.773,2.283c2.415,2.998,4.234,4.778,6.391,5.008c2.117,0.227,4.177-1.06,7.017-3.358
	c1.808-1.462,3.044-2.054,3.898-1.869c0.813,0.179,1.626,1.146,2.56,3.041c0.156,0.317,0.309,0.636,0.46,0.954
	c1.552,3.241,3.31,6.915,8.41,7.125c6.223,0.255,8.8-1.681,11.527-8.643l0.221-0.573c0.57-1.494,1.159-3.038,2.199-3.434
	c0.636-0.241,1.522-0.071,2.635,0.508c4.322,2.248,8.876,2.185,13.287,2.129c1.361-0.018,2.769-0.037,4.135,0.016
	c4.586,0.175,8.249-1.073,11.202-3.819c1.805-1.68,3.445-1.787,5.848-0.378c6.272,3.677,13.323,3.074,20.392-1.746
	c3.426-2.334,6.634-3.232,11.072-3.121c3.501,0.093,7.056,0.072,10.496,0.05c1.343-0.008,2.687-0.015,4.029-0.017V21.002z"/>
</svg>
