<?xml version="1.0" encoding="utf-8"?>
<!-- Generator: Adobe Illustrator 16.0.0, SVG Export Plug-In . SVG Version: 6.00 Build 0)  -->
<!DOCTYPE svg PUBLIC "-//W3C//DTD SVG 1.1//EN" "http://www.w3.org/Graphics/SVG/1.1/DTD/svg11.dtd">
<svg version="1.1" id="Layer_1" xmlns="http://www.w3.org/2000/svg" xmlns:xlink="http://www.w3.org/1999/xlink" x="0px" y="0px"
	 width="43px" height="90px" viewBox="0 0 43 90" enable-background="new 0 0 43 90" xml:space="preserve">
<linearGradient id="SVGID_1_" gradientUnits="userSpaceOnUse" x1="249.084" y1="-1069.5049" x2="251.7372" y2="-1083.842" gradientTransform="matrix(-1.674 0.3436 -0.3098 -1.51 105.205 -1699.1809)">
	<stop  offset="0.0538" style="stop-color:#E6E6E6"/>
	<stop  offset="0.5" style="stop-color:#EDF4FA"/>
	<stop  offset="0.6171" style="stop-color:#E9F0F7"/>
	<stop  offset="0.7385" style="stop-color:#DCE6EE"/>
	<stop  offset="0.8617" style="stop-color:#C8D3E0"/>
	<stop  offset="0.9856" style="stop-color:#ABBACC"/>
	<stop  offset="1" style="stop-color:#A7B7C9"/>
</linearGradient>
<path fill="url(#SVGID_1_)" stroke="#A3A3A3" stroke-width="2" stroke-linecap="round" stroke-linejoin="round" stroke-miterlimit="10" d="
	M28.002,23.079c-4.182,0.843-8.656,0.848-9.85,0.833c-2.317-0.031-11.91-1.382-12.882-3.59c-0.836-1.902-0.768-4.737-1.83-9.236
	C1.833,4.289,6.325,1.934,9.948,1.722c3.552-0.208,4.242,0.293,7.896,0.283c4.263-0.014,7.005-0.428,8.5-0.479
	c1.488-0.051,8.674-0.235,9.59,5.746c0.451,2.967-0.748,5.362-0.769,10.099c-0.008,1.875,0.019,3.335,0.019,3.335
	S31.93,22.285,28.002,23.079z"/>
<radialGradient id="SVGID_2_" cx="-239.9121" cy="-1831.041" r="21.5316" gradientTransform="matrix(-1 0 0 -1 -216.7695 -1785.9512)" gradientUnits="userSpaceOnUse">
	<stop  offset="0" style="stop-color:#FFFCC7"/>
	<stop  offset="1" style="stop-color:#E8BD6E"/>
</radialGradient>
<path fill="url(#SVGID_2_)" d="M5.561,20.228c0.488,4.145,0.248,7.947,0.533,12.129c0.813,12.042,3.6,23.547,9.658,33.929
	c1.362,2.335,2.83,4.437,6.156,3.389c3.371-1.061,3.05-3.618,3.105-6.737C25.07,59.91,20.678,44.578,20.934,40
	c1.152,2.717,7.945,16.927,9.449,19.057c2.03,2.879,4.735,5.905,8.172,4.314c3.66-1.694,1.783-4.753,0.866-7.778
	c-3.389-11.196-3.715-23.499-4.51-35.021l-0.202-0.003c-1.564,1.048-5.962,2.764-14.376,3.202
	C11.542,24.227,5.561,20.229,5.561,20.228z"/>
<path fill="none" stroke="#ff7071" stroke-width="1.5" stroke-linecap="round" stroke-linejoin="round" stroke-miterlimit="10" d="
	M5.561,21c0.49,4.145,0.25,7.175,0.535,11.357c0.812,12.042,3.601,23.547,9.659,33.929c1.362,2.335,2.828,4.437,6.155,3.389
	c3.371-1.061,3.05-3.618,3.105-6.737C25.072,59.91,20.68,44.578,20.936,40c1.152,2.717,7.945,16.927,9.449,19.057
	c2.03,2.879,4.735,5.905,8.172,4.314c3.66-1.694,1.783-4.753,0.866-7.778c-3.389-11.196-3.715-23.499-4.51-35.021"/>
<linearGradient id="SVGID_3_" gradientUnits="userSpaceOnUse" x1="249.084" y1="-1069.5049" x2="251.7372" y2="-1083.842" gradientTransform="matrix(-1.674 0.3436 -0.3098 -1.51 105.205 -1699.1809)">
	<stop  offset="0.0538" style="stop-color:#E6E6E6"/>
	<stop  offset="0.5" style="stop-color:#EDF4FA"/>
	<stop  offset="0.6171" style="stop-color:#E9F0F7"/>
	<stop  offset="0.7385" style="stop-color:#DCE6EE"/>
	<stop  offset="0.8617" style="stop-color:#C8D3E0"/>
	<stop  offset="0.9856" style="stop-color:#ABBACC"/>
	<stop  offset="1" style="stop-color:#A7B7C9"/>
</linearGradient>
<path fill="url(#SVGID_3_)" d="M28.002,23.079c-4.182,0.843-8.656,0.848-9.85,0.833c-2.317-0.031-11.91-1.382-12.882-3.59
	c-0.836-1.902-0.768-4.737-1.83-9.236C1.833,4.289,6.325,1.934,9.948,1.722c3.552-0.208,4.242,0.293,7.896,0.283
	c4.263-0.014,7.005-0.428,8.5-0.479c1.488-0.051,8.674-0.235,9.59,5.746c0.451,2.967-0.748,5.362-0.769,10.099
	c-0.008,1.875,0.019,3.335,0.019,3.335S31.93,22.285,28.002,23.079z"/>
</svg>
