<?xml version="1.0" encoding="utf-8"?>
<!-- Generator: Adobe Illustrator 16.0.0, SVG Export Plug-In . SVG Version: 6.00 Build 0)  -->
<!DOCTYPE svg PUBLIC "-//W3C//DTD SVG 1.1//EN" "http://www.w3.org/Graphics/SVG/1.1/DTD/svg11.dtd">
<svg version="1.1" id="Layer_2" xmlns="http://www.w3.org/2000/svg" xmlns:xlink="http://www.w3.org/1999/xlink" x="0px" y="0px"
	 width="28px" height="90px" viewBox="0 0 28 90" enable-background="new 0 0 28 90" xml:space="preserve">
<linearGradient id="SVGID_1_" gradientUnits="userSpaceOnUse" x1="858.6465" y1="-1076.2871" x2="858.6318" y2="-1102.3979" gradientTransform="matrix(1 -5.791084e-004 -5.592712e-004 -0.9657 -844.7545 -1037.7932)">
	<stop  offset="0.0538" style="stop-color:#E6E6E6"/>
	<stop  offset="0.5" style="stop-color:#EDF4FA"/>
	<stop  offset="0.6171" style="stop-color:#E9F0F7"/>
	<stop  offset="0.7385" style="stop-color:#DCE6EE"/>
	<stop  offset="0.8617" style="stop-color:#C8D3E0"/>
	<stop  offset="0.9856" style="stop-color:#ABBACC"/>
	<stop  offset="1" style="stop-color:#A7B7C9"/>
</linearGradient>
<path fill="url(#SVGID_1_)" stroke="#A3A3A3" stroke-width="2" stroke-miterlimit="10" d="M24.494,7.428
	c-1.244-2.16-4.518-3.953-6.85-5.332c-2.455-1.452-3.85-1.028-4.348-0.668c-2.422,1.75-3.266,2.423-4.938,3.649
	C6.707,6.292,5.162,7.37,4.283,8.637C2.84,10.72,3.024,12.538,3.72,15.655c0.792,3.64,1.337,4.313,1.889,7.581
	c0,0.003,1.794,1.608,1.799,1.609c1.365,0.448,4.018,1.519,6,1.448c2.375-0.083,4.463-0.256,5.96-0.454
	c0.169-0.021,4.317-1.325,4.332-1.476c0.458-4.625,1.116-6.478,1.896-10.28C26.044,11.89,25.768,9.451,24.494,7.428z"/>
<radialGradient id="SVGID_2_" cx="575.6328" cy="801.0898" r="19.9085" gradientTransform="matrix(1 0 0 1 -561.1992 -750.9805)" gradientUnits="userSpaceOnUse">
	<stop  offset="0" style="stop-color:#FFFCC7"/>
	<stop  offset="1" style="stop-color:#E8BD6E"/>
</radialGradient>
<path fill="url(#SVGID_2_)" d="M23.068,24.583c-1.172,0.445-3.572,1.221-3.7,1.239c-1.497,0.205-3.585,0.383-5.96,0.47
	c-1.982,0.073-4.635-1.036-6-1.5c-0.002-0.001-0.653-0.798-1.198-1.467c-0.002,0.175,0.002,0.348-0.012,0.527
	C5.58,31.875,5.542,39.913,6.8,47.889c1.159,7.355,1.666,14.645-0.586,21.916c-0.75,2.428-0.811,5.252,1.662,6.586
	c2.863,1.543,4.61-0.746,6.269-2.977c2.528-3.409,4.037-7.063,5.06-11.213c2.932-11.86,4.182-24.056,3.852-36.245
	C23.045,25.492,23.059,25.039,23.068,24.583z"/>
<path fill="none" stroke="#ff7071" stroke-width="1.5" stroke-linecap="round" stroke-linejoin="round" stroke-miterlimit="10" d="
	M23.045,24.411c-0.012,0.51-0.012,1.025,0.002,1.545c0.33,12.189-0.92,24.385-3.852,36.245c-1.021,4.15-2.531,7.804-5.059,11.213
	c-1.659,2.23-3.406,4.52-6.269,2.977c-2.473-1.334-2.413-4.158-1.662-6.586c2.252-7.271,1.745-14.561,0.586-21.916
	C5.533,39.913,5.57,31.875,6.189,23.852c0.01-0.134,0.017-0.266,0.021-0.397"/>
<linearGradient id="SVGID_3_" gradientUnits="userSpaceOnUse" x1="858.6475" y1="-1076.2876" x2="858.6328" y2="-1102.3984" gradientTransform="matrix(1 -5.791084e-004 -5.592712e-004 -0.9657 -844.7545 -1037.7932)">
	<stop  offset="0.0538" style="stop-color:#E6E6E6"/>
	<stop  offset="0.5" style="stop-color:#EDF4FA"/>
	<stop  offset="0.6171" style="stop-color:#E9F0F7"/>
	<stop  offset="0.7385" style="stop-color:#DCE6EE"/>
	<stop  offset="0.8617" style="stop-color:#C8D3E0"/>
	<stop  offset="0.9856" style="stop-color:#ABBACC"/>
	<stop  offset="1" style="stop-color:#A7B7C9"/>
</linearGradient>
<path fill="url(#SVGID_3_)" d="M24.494,7.428c-1.244-2.16-4.518-3.953-6.85-5.332c-2.455-1.452-3.85-1.028-4.348-0.668
	c-2.422,1.75-3.266,2.423-4.938,3.649C6.707,6.292,5.162,7.37,4.283,8.637C2.84,10.72,3.024,12.538,3.72,15.655
	c0.792,3.64,1.337,4.313,1.889,7.581c0,0.003,1.794,1.608,1.799,1.609c1.365,0.448,4.018,1.519,6,1.448
	c2.375-0.083,4.463-0.256,5.96-0.454c0.169-0.021,4.317-1.325,4.332-1.476c0.458-4.625,1.116-6.478,1.896-10.28
	C26.044,11.89,25.768,9.451,24.494,7.428z"/>
</svg>
