<?xml version="1.0" encoding="utf-8"?>
<!-- Generator: Adobe Illustrator 16.0.0, SVG Export Plug-In . SVG Version: 6.00 Build 0)  -->
<!DOCTYPE svg PUBLIC "-//W3C//DTD SVG 1.1//EN" "http://www.w3.org/Graphics/SVG/1.1/DTD/svg11.dtd">
<svg version="1.1" id="Layer_2" xmlns="http://www.w3.org/2000/svg" xmlns:xlink="http://www.w3.org/1999/xlink" x="0px" y="0px"
	 width="23px" height="90px" viewBox="0 0 23 90" enable-background="new 0 0 23 90" xml:space="preserve">
<linearGradient id="SVGID_1_" gradientUnits="userSpaceOnUse" x1="775.4697" y1="-1046.5391" x2="775.4545" y2="-1074.0688" gradientTransform="matrix(1.1043 -5.948010e-004 -6.176104e-004 -0.9919 -845.2111 -1036.1689)">
	<stop  offset="0.0538" style="stop-color:#E6E6E6"/>
	<stop  offset="0.5" style="stop-color:#EDF4FA"/>
	<stop  offset="0.6171" style="stop-color:#E9F0F7"/>
	<stop  offset="0.7385" style="stop-color:#DCE6EE"/>
	<stop  offset="0.8617" style="stop-color:#C8D3E0"/>
	<stop  offset="0.9856" style="stop-color:#ABBACC"/>
	<stop  offset="1" style="stop-color:#A7B7C9"/>
</linearGradient>
<path fill="url(#SVGID_1_)" stroke="#A3A3A3" stroke-width="2" stroke-linecap="round" stroke-linejoin="round" stroke-miterlimit="10" d="
	M20.652,2.499c-1.312-1.486-3.523-0.96-10.642-1.035C3.923,1.399,3.209,1.409,2.474,3.082c-0.23,0.526-0.246,1.696-0.239,2.265
	c0.013,0.89,0.105,2.588,0.031,3.56c-0.109,1.479,0.099,4.419,0.099,5.905c0.544,3.386,1.066,6.438,1.372,9.094
	c1.687,2.307,4.723,4.293,5.8,4.638c1.212,0.39,2.826,0.23,5.07-0.773c2.379-1.063,4.976-5.84,4.976-5.84s0.463,0.715,0.959-0.68
	c0.104-2.452,0.362-6.879,0.375-9.053c0,0,0.026-0.143,0.026-0.211c0.063-0.473,0.14-0.946,0.188-1.419
	c0.053-0.51,0.031-1.029,0.021-1.545C21.38,6.378,21.566,3.535,20.652,2.499z"/>
<radialGradient id="SVGID_2_" cx="853.9639" cy="-1081.4639" r="20.0086" gradientTransform="matrix(1 0 0 -1 -841.7988 -1034.9707)" gradientUnits="userSpaceOnUse">
	<stop  offset="0" style="stop-color:#FFFCC7"/>
	<stop  offset="1" style="stop-color:#E8BD6E"/>
</radialGradient>
<path fill="url(#SVGID_2_)" d="M18.872,22c0,0-2.351,4.728-4.504,5.78c-2.032,0.993-3.495,1.15-4.593,0.766
	c-0.975-0.342-3.829-2.46-5.357-4.745c0.974,9.203,0.846,15.434,1.09,28.984c0.059,3.266-0.252,11.376-0.188,14.666
	c0.057,3.15,0.313,6.02,2.378,6.212c3.528,0.329,4.005-1.161,5.367-3.623c2.652-4.808,3.582-10.828,4.148-16.177
	c0.911-8.62,2.234-22.807,2.699-34.585C19.463,20.658,18.872,22,18.872,22z"/>
<path fill="none" stroke="#ff7071" stroke-width="1.5" stroke-linecap="round" stroke-linejoin="round" stroke-miterlimit="10" d="
	M4.438,23.987c0.952,9.102,0.828,15.339,1.07,28.798c0.059,3.266-0.252,11.376-0.188,14.666c0.057,3.15,0.313,6.02,2.378,6.212
	c3.528,0.329,4.005-1.161,5.367-3.623c2.652-4.808,3.582-10.828,4.148-16.177c0.855-8.104,2.08-21.135,2.609-32.452"/>
<linearGradient id="SVGID_3_" gradientUnits="userSpaceOnUse" x1="775.4697" y1="-1046.5391" x2="775.4545" y2="-1074.0688" gradientTransform="matrix(1.1043 -5.948010e-004 -6.176104e-004 -0.9919 -845.2111 -1036.1689)">
	<stop  offset="0.0538" style="stop-color:#E6E6E6"/>
	<stop  offset="0.5" style="stop-color:#EDF4FA"/>
	<stop  offset="0.6171" style="stop-color:#E9F0F7"/>
	<stop  offset="0.7385" style="stop-color:#DCE6EE"/>
	<stop  offset="0.8617" style="stop-color:#C8D3E0"/>
	<stop  offset="0.9856" style="stop-color:#ABBACC"/>
	<stop  offset="1" style="stop-color:#A7B7C9"/>
</linearGradient>
<path fill="url(#SVGID_3_)" d="M20.652,2.499c-1.312-1.486-3.523-0.96-10.642-1.035C3.923,1.399,3.209,1.409,2.474,3.082
	c-0.23,0.526-0.246,1.696-0.239,2.265c0.013,0.89,0.105,2.588,0.031,3.56c-0.109,1.479,0.099,4.419,0.099,5.905
	c0.544,3.386,1.066,6.438,1.372,9.094c1.687,2.307,4.723,4.293,5.8,4.638c1.212,0.39,2.826,0.23,5.07-0.773
	c2.379-1.063,5.031-5.626,5.031-5.626s0.545-0.562,0.903-0.893c0.104-2.452,0.362-6.879,0.375-9.053c0,0,0.026-0.143,0.026-0.211
	c0.063-0.473,0.14-0.946,0.188-1.419c0.053-0.51,0.031-1.029,0.021-1.545C21.38,6.378,21.566,3.535,20.652,2.499z"/>
</svg>
