<?xml version="1.0" encoding="utf-8"?>
<!-- Generator: Adobe Illustrator 16.0.0, SVG Export Plug-In . SVG Version: 6.00 Build 0)  -->
<!DOCTYPE svg PUBLIC "-//W3C//DTD SVG 1.1//EN" "http://www.w3.org/Graphics/SVG/1.1/DTD/svg11.dtd">
<svg version="1.1" id="Layer_2" xmlns="http://www.w3.org/2000/svg" xmlns:xlink="http://www.w3.org/1999/xlink" x="0px" y="0px"
	 width="45px" height="90px" viewBox="0 0 45 90" enable-background="new 0 0 45 90" xml:space="preserve">
<linearGradient id="SVGID_1_" gradientUnits="userSpaceOnUse" x1="865.4658" y1="-1077.9048" x2="865.4525" y2="-1101.9639" gradientTransform="matrix(1 -5.791084e-004 -5.592712e-004 -0.9657 -843.2545 -1038.7893)">
	<stop  offset="0.0538" style="stop-color:#E6E6E6"/>
	<stop  offset="0.5" style="stop-color:#EDF4FA"/>
	<stop  offset="0.6171" style="stop-color:#E9F0F7"/>
	<stop  offset="0.7385" style="stop-color:#DCE6EE"/>
	<stop  offset="0.8617" style="stop-color:#C8D3E0"/>
	<stop  offset="0.9856" style="stop-color:#ABBACC"/>
	<stop  offset="1" style="stop-color:#A7B7C9"/>
</linearGradient>
<path fill="url(#SVGID_1_)" stroke="#A3A3A3" stroke-width="2" stroke-linecap="round" stroke-linejoin="round" stroke-miterlimit="10" d="
	M40.926,10c0.047-1.048-0.033-2.022-0.223-2.91c-0.157-0.676-0.378-1.336-0.674-1.94c-0.027-0.057-0.059-0.111-0.088-0.165
	c-0.129-0.248-0.273-0.482-0.43-0.705c-0.048-0.064-0.091-0.132-0.138-0.196c-0.933-1.219-2.272-1.948-3.608-2.268
	c-0.104-0.021-0.209-0.041-0.315-0.059c-0.111-0.021-0.222-0.042-0.333-0.058c-0.559-0.067-1.15-0.076-1.775-0.022
	c-0.426,0.058-0.81,0.11-1.164,0.161c-0.967,0.177-1.934,0.38-2.898,0.458c-1.047,0.099-2.112,0.215-3.85,0.215
	c-0.074,0-0.146,0-0.223,0c-0.047,0-0.088,0-0.137,0c-2.721,0-5.018-0.205-6.775-0.235c-0.949-0.001-1.898-0.024-2.849,0.03
	c-2.309,0.278-4.88,0.383-6.923,1.218C8.52,3.524,8.517,3.514,8.513,3.515C8.261,3.619,8.017,3.729,7.782,3.856
	C7.776,3.859,7.77,3.858,7.765,3.861C7.529,3.989,7.304,4.129,7.089,4.285C7.086,4.286,7.082,4.288,7.078,4.29
	C6.893,4.425,6.721,4.576,6.554,4.732c-0.036,0.035-0.076,0.064-0.111,0.1C6.351,4.924,6.271,5.031,6.186,5.129
	c-0.739,0.883-1.187,2.039-1.38,3.59c-0.004,0.038-0.01,0.071-0.013,0.109C4.774,8.987,4.765,9.162,4.751,9.328
	c-0.035,0.72-0.057,1.336-0.06,1.897c0.005,0.37,0.015,0.749,0.035,1.15c0.024,0.469,0.077,0.935,0.148,1.396
	c0.008,0.048,0.014,0.097,0.022,0.146c0.03,0.185,0.065,0.369,0.101,0.552c0.033,0.167,0.07,0.342,0.109,0.521
	c0.005,0.023,0.011,0.047,0.016,0.071c0.036,0.159,0.075,0.324,0.115,0.493c0.257,1.059,0.566,2.106,0.836,3.157
	c0.004,0.015,0.007,0.027,0.011,0.04c0.068,0.244,0.129,0.497,0.183,0.752c0.266,1.147,0.449,2.304,0.436,3.49
	c0.002,0.042,0.003,0.071,0.003,0.071s2.773,0.923,7.171,1.413c4.541,0.505,8.299,0.391,9.576,0.381
	c2.475-0.017,15.354-0.53,15.297-1.581c-0.146-2.729,0.119-5.119,0.484-6.395c0.016-0.055,0.033-0.116,0.049-0.173
	c0.23-1.108,0.549-2.213,0.975-3.315c0.129-0.408,0.262-0.807,0.395-1.181c0.115-0.325,0.193-0.728,0.257-1.16
	C40.917,10.7,40.91,10.341,40.926,10z"/>
<g>
	
		<radialGradient id="SVGID_2_" cx="864.1982" cy="-1084.6846" r="22.9044" gradientTransform="matrix(1 0 0 -1 -843.2988 -1035.9707)" gradientUnits="userSpaceOnUse">
		<stop  offset="0" style="stop-color:#FFFCC7"/>
		<stop  offset="1" style="stop-color:#E8BD6E"/>
	</radialGradient>
	<path fill="url(#SVGID_2_)" d="M38.752,22.097c0.006,2.56-12.684,2.743-15.156,2.76c-1.278,0.01-5.037,0.127-9.578-0.39
		c-4.398-0.501-7.171-1.445-7.171-1.445s-0.141-0.029-0.143-0.073c-0.004,0.375-0.017,0.763-0.063,1.144
		C5.039,37.303,7.134,50.874,3.19,63.907c-0.88,2.905-1.658,6.918,1.784,8.614c3.406,1.681,5.875-1.664,7.687-3.953
		c4.771-6.024,8.389-17.184,10.291-24.794c2.452,8.125-1.127,16.82-2.046,23.078c-0.434,2.953-1.078,6.283,1.996,7.793
		c3.167,1.558,4.458,0.267,6.418-1.889c0.531-0.586,1.824-2.432,2.186-3.143c5.622-11.109,8.893-22.627,7.555-35.542L38.752,22.097z
		"/>
</g>
<path fill="none" stroke="#ff7071" stroke-width="1.5" stroke-linecap="round" stroke-miterlimit="10" d="M38.217,23.768
	c0.001,3.959-0.156,6.344,0.254,10.315c1.338,12.913-0.759,23.681-6.966,35.532c-0.69,1.32-1.7,3.13-2.231,3.716
	c-1.961,2.151-3.365,2.871-6.536,1.315c-3.074-1.51-2.43-4.84-1.996-7.793c0.919-6.258,4.499-14.953,2.046-23.08
	c-1.901,7.615-5.52,18.77-10.291,24.792c-1.812,2.289-4.281,5.636-7.687,3.953c-3.441-1.694-2.664-5.709-1.784-8.612
	c3.945-13.033,2.664-27.68,4.266-40.891"/>
<linearGradient id="SVGID_3_" gradientUnits="userSpaceOnUse" x1="865.4658" y1="-1077.9048" x2="865.4525" y2="-1101.9639" gradientTransform="matrix(1 -5.791084e-004 -5.592712e-004 -0.9657 -843.2545 -1038.7893)">
	<stop  offset="0.0538" style="stop-color:#E6E6E6"/>
	<stop  offset="0.5" style="stop-color:#EDF4FA"/>
	<stop  offset="0.6171" style="stop-color:#E9F0F7"/>
	<stop  offset="0.7385" style="stop-color:#DCE6EE"/>
	<stop  offset="0.8617" style="stop-color:#C8D3E0"/>
	<stop  offset="0.9856" style="stop-color:#ABBACC"/>
	<stop  offset="1" style="stop-color:#A7B7C9"/>
</linearGradient>
<path fill="url(#SVGID_3_)" d="M40.926,10c0.047-1.048-0.033-2.022-0.223-2.91c-0.157-0.676-0.378-1.336-0.674-1.94
	c-0.027-0.057-0.059-0.111-0.088-0.165c-0.129-0.248-0.273-0.482-0.43-0.705c-0.048-0.064-0.091-0.132-0.138-0.196
	c-0.933-1.219-2.272-1.948-3.608-2.268c-0.104-0.021-0.209-0.041-0.315-0.059c-0.111-0.021-0.222-0.042-0.333-0.058
	c-0.559-0.067-1.15-0.076-1.775-0.022c-0.426,0.058-0.81,0.11-1.164,0.161c-0.967,0.177-1.934,0.38-2.898,0.458
	c-1.047,0.099-2.112,0.215-3.85,0.215c-0.074,0-0.146,0-0.223,0c-0.047,0-0.088,0-0.137,0c-2.721,0-5.018-0.205-6.775-0.235
	c-0.949-0.001-1.898-0.024-2.849,0.03c-2.309,0.278-4.88,0.383-6.923,1.218C8.52,3.524,8.517,3.514,8.513,3.515
	C8.261,3.619,8.017,3.729,7.782,3.856C7.776,3.859,7.77,3.858,7.765,3.861C7.529,3.989,7.304,4.129,7.089,4.285
	C7.086,4.286,7.082,4.288,7.078,4.29C6.893,4.425,6.721,4.576,6.554,4.732c-0.036,0.035-0.076,0.064-0.111,0.1
	C6.351,4.924,6.271,5.031,6.186,5.129c-0.739,0.883-1.187,2.039-1.38,3.59c-0.004,0.038-0.01,0.071-0.013,0.109
	C4.774,8.987,4.765,9.162,4.751,9.328c-0.035,0.72-0.057,1.336-0.06,1.897c0.005,0.37,0.015,0.749,0.035,1.15
	c0.024,0.469,0.077,0.935,0.148,1.396c0.008,0.048,0.014,0.097,0.022,0.146c0.03,0.185,0.065,0.369,0.101,0.552
	c0.033,0.167,0.07,0.342,0.109,0.521c0.005,0.023,0.011,0.047,0.016,0.071c0.036,0.159,0.075,0.324,0.115,0.493
	c0.257,1.059,0.566,2.106,0.836,3.157c0.004,0.015,0.007,0.027,0.011,0.04c0.068,0.244,0.129,0.497,0.183,0.752
	c0.266,1.147,0.449,2.304,0.436,3.49c0.002,0.042,0.003,0.071,0.003,0.071s2.773,0.923,7.171,1.413
	c4.541,0.505,8.299,0.391,9.576,0.381c2.475-0.017,15.354-0.53,15.297-1.581c-0.146-2.729,0.119-5.119,0.484-6.395
	c0.016-0.055,0.033-0.116,0.049-0.173c0.23-1.108,0.549-2.213,0.975-3.315c0.129-0.408,0.262-0.807,0.395-1.181
	c0.115-0.325,0.193-0.728,0.257-1.16C40.917,10.7,40.91,10.341,40.926,10z"/>
</svg>
