<?xml version="1.0" encoding="utf-8"?>
<!-- Generator: Adobe Illustrator 16.0.0, SVG Export Plug-In . SVG Version: 6.00 Build 0)  -->
<!DOCTYPE svg PUBLIC "-//W3C//DTD SVG 1.1//EN" "http://www.w3.org/Graphics/SVG/1.1/DTD/svg11.dtd">
<svg version="1.1" id="Layer_1" xmlns="http://www.w3.org/2000/svg" xmlns:xlink="http://www.w3.org/1999/xlink" x="0px" y="0px"
	 width="28px" height="90px" viewBox="0 0 28 90" enable-background="new 0 0 28 90" xml:space="preserve">
<linearGradient id="SVGID_1_" gradientUnits="userSpaceOnUse" x1="-560.5981" y1="1555.9658" x2="-560.6125" y2="1581.5898" gradientTransform="matrix(-1 -5.791085e-004 -5.592713e-004 0.9657 -546.2584 -1501.6462)">
	<stop  offset="0.0538" style="stop-color:#E6E6E6"/>
	<stop  offset="0.5" style="stop-color:#EDF4FA"/>
	<stop  offset="0.6171" style="stop-color:#E9F0F7"/>
	<stop  offset="0.7385" style="stop-color:#DCE6EE"/>
	<stop  offset="0.8617" style="stop-color:#C8D3E0"/>
	<stop  offset="0.9856" style="stop-color:#ABBACC"/>
	<stop  offset="1" style="stop-color:#A7B7C9"/>
</linearGradient>
<path fill="url(#SVGID_1_)" stroke="#A3A3A3" stroke-width="2" stroke-linecap="round" stroke-linejoin="round" stroke-miterlimit="10" d="
	M22.34,26.02c0.006-0.002,0.01-0.004,0.014-0.005c-0.031-4.085,0.797-7.985,1.555-11.973c1.316-6.969,0.001-8.57-8.758-12.165
	C11.143,0.231,5.734,2.071,3.505,5.988c-1.285,2.26-0.99,4.864-0.449,7.221c0.879,3.828,1.481,7.688,1.938,11.566"/>
<radialGradient id="SVGID_2_" cx="-560.1133" cy="1553.8164" r="20.2821" gradientTransform="matrix(-1 0 0 1 -546.2617 -1501.9609)" gradientUnits="userSpaceOnUse">
	<stop  offset="0" style="stop-color:#FFFCC7"/>
	<stop  offset="1" style="stop-color:#E8BD6E"/>
</radialGradient>
<path fill="url(#SVGID_2_)" d="M5.03,24.708c1.138,10.059,1.322,20.496,2.485,30.549c0.796,6.877,1.836,13.67,4.846,19.897
	c1.117,2.318,2.366,4.637,5.209,3.83c2.699-0.77,3.188-3.383,3.262-6.034c0.053-1.853-0.006-3.769-0.018-5.624
	c1.063-13.246,2.449-26.609,1.592-39.946c-0.035-0.549-0.055-1.817-0.059-2.817"/>
<path fill="none" stroke="#ff7071" stroke-width="1.5" stroke-linecap="round" stroke-linejoin="round" stroke-miterlimit="10" d="
	M22.35,25.419c0.004,0.543,0.021,1.654,0.06,2.203c0.854,13.336-0.525,26.579-1.593,39.826c0.013,1.854,0.068,3.711,0.019,5.563
	c-0.069,2.651-0.563,5.237-3.265,6.005c-2.844,0.805-4.088-1.529-5.208-3.847c-3.01-6.226-4.05-13.026-4.846-19.903
	C6.353,45.212,6.17,35.4,5.03,25.341"/>
<linearGradient id="SVGID_3_" gradientUnits="userSpaceOnUse" x1="-560.5981" y1="1555.9658" x2="-560.6134" y2="1583.1582" gradientTransform="matrix(-1 -5.791085e-004 -5.592713e-004 0.9657 -546.2584 -1501.6462)">
	<stop  offset="0.0538" style="stop-color:#E6E6E6"/>
	<stop  offset="0.5" style="stop-color:#EDF4FA"/>
	<stop  offset="0.6171" style="stop-color:#E9F0F7"/>
	<stop  offset="0.7385" style="stop-color:#DCE6EE"/>
	<stop  offset="0.8617" style="stop-color:#C8D3E0"/>
	<stop  offset="0.9856" style="stop-color:#ABBACC"/>
	<stop  offset="1" style="stop-color:#A7B7C9"/>
</linearGradient>
<path fill="url(#SVGID_3_)" d="M3.056,13.208c0.879,3.828,1.481,7.688,1.938,11.566c0.119,0.1,0.26,0.192,0.402,0.285
	c0,0,6.79,2.387,9.165,2.472c1.982,0.071,7.779-1.512,7.779-1.512c0.006-0.002,0.01-0.004,0.014-0.005
	c-0.031-4.085,0.797-7.985,1.555-11.973c1.316-6.969,0.001-8.57-8.758-12.165C11.143,0.231,5.734,2.071,3.505,5.988
	C2.22,8.248,2.515,10.852,3.056,13.208z"/>
</svg>
