<?xml version="1.0" encoding="utf-8"?>
<!-- Generator: Adobe Illustrator 16.0.0, SVG Export Plug-In . SVG Version: 6.00 Build 0)  -->
<!DOCTYPE svg PUBLIC "-//W3C//DTD SVG 1.1//EN" "http://www.w3.org/Graphics/SVG/1.1/DTD/svg11.dtd">
<svg version="1.1" id="Layer_1" xmlns="http://www.w3.org/2000/svg" xmlns:xlink="http://www.w3.org/1999/xlink" x="0px" y="0px"
	 width="31px" height="90px" viewBox="0 0 31 90" enable-background="new 0 0 31 90" xml:space="preserve">
<linearGradient id="SVGID_1_" gradientUnits="userSpaceOnUse" x1="-265.8325" y1="-1787.019" x2="-265.8325" y2="-1814.8042" gradientTransform="matrix(-1 0 0 -1 -250.0645 -1785.9512)">
	<stop  offset="0.0538" style="stop-color:#E6E6E6"/>
	<stop  offset="0.5" style="stop-color:#EDF4FA"/>
	<stop  offset="0.6171" style="stop-color:#E9F0F7"/>
	<stop  offset="0.7385" style="stop-color:#DCE6EE"/>
	<stop  offset="0.8617" style="stop-color:#C8D3E0"/>
	<stop  offset="0.9856" style="stop-color:#ABBACC"/>
	<stop  offset="1" style="stop-color:#A7B7C9"/>
</linearGradient>
<path fill="url(#SVGID_1_)" stroke="#A3A3A3" stroke-width="1.9971" stroke-linecap="round" stroke-linejoin="round" stroke-miterlimit="10" d="
	M26.197,28.853c0.564-3.823,1.273-5.347,1.689-9.647c0.742-7.704-1.187-13.175-8.476-16.202c-3.167-1.315-5.951-3.146-9.39-0.824
	C6.342,4.667,3.174,6.889,3.528,12.563c0.325,5.192,0.698,8.292,1.138,13.467"/>
<radialGradient id="SVGID_2_" cx="-265.4966" cy="-1810.125" r="23.4116" gradientTransform="matrix(-1 0 0 -1.018 -250.0645 -1785.9106)" gradientUnits="userSpaceOnUse">
	<stop  offset="0" style="stop-color:#FFFCC7"/>
	<stop  offset="1" style="stop-color:#E8BD6E"/>
</radialGradient>
<path fill="url(#SVGID_2_)" d="M4.667,24.923c1.132,13.382,2.949,30.322,6.613,47.328c1.269,5.896,3.459,11.44,7.806,15.72
	c1.1,0.975,3.049,0.891,3.805,0c1.836-1.779,1.701-5.375,1.562-8.574c-0.267-5.979-0.114-12.17,0.008-18.237
	c0.177-8.83,0.503-18.013,1.086-26.027c0.146-2.045,0.388-5.932,0.651-7.773c-0.961,0.784-2.452,1.999-2.844,2.29
	c-1.367,1.023-4.355,2.063-6.508,1.967c-2.578-0.114-5.457-1.124-6.701-2.077C8.938,28.611,5.98,26.291,4.667,24.923z"/>
<linearGradient id="SVGID_3_" gradientUnits="userSpaceOnUse" x1="-265.8325" y1="-1786.9272" x2="-265.8325" y2="-1819.0552" gradientTransform="matrix(-1 0 0 -1 -250.0645 -1785.9512)">
	<stop  offset="0.0538" style="stop-color:#E6E6E6"/>
	<stop  offset="0.5" style="stop-color:#EDF4FA"/>
	<stop  offset="0.6171" style="stop-color:#E9F0F7"/>
	<stop  offset="0.7385" style="stop-color:#DCE6EE"/>
	<stop  offset="0.8617" style="stop-color:#C8D3E0"/>
	<stop  offset="0.9856" style="stop-color:#ABBACC"/>
	<stop  offset="1" style="stop-color:#A7B7C9"/>
</linearGradient>
<path fill="url(#SVGID_3_)" d="M3.528,12.504c0.325,5.207,0.698,8.316,1.138,13.505c0.9,2.023,3.373,4.434,4.587,5.358
	c1.252,0.953,4.937,1.617,7.532,1.731c2.164,0.095,5.175-0.944,6.551-1.967c0.391-0.29,1.896-1.506,2.861-2.29
	c0.564-3.834,1.273-5.362,1.689-9.675C28.629,11.44,26.7,5.954,19.411,2.918c-3.167-1.32-5.951-3.155-9.39-0.826
	C6.342,4.586,3.174,6.814,3.528,12.504z"/>
<path fill="none" stroke="#ff7071" stroke-width="1.5" stroke-linecap="round" stroke-linejoin="round" stroke-miterlimit="10" d="
	M4.803,27.625c1.299,15.095,3.226,30.1,6.478,44.921c1.269,5.79,3.459,11.233,7.806,15.438c1.101,0.957,3.05,0.875,3.806,0
	c1.836-1.748,1.7-5.278,1.561-8.422c-0.266-5.875-0.114-11.957,0.008-17.918c0.178-8.674,0.503-17.694,1.086-25.566
	c0.146-2.01,1.161-8.515,1.432-10.324"/>
</svg>
