<?xml version="1.0" encoding="utf-8"?>
<!-- Generator: Adobe Illustrator 16.0.0, SVG Export Plug-In . SVG Version: 6.00 Build 0)  -->
<!DOCTYPE svg PUBLIC "-//W3C//DTD SVG 1.1//EN" "http://www.w3.org/Graphics/SVG/1.1/DTD/svg11.dtd">
<svg version="1.1" id="Layer_2" xmlns="http://www.w3.org/2000/svg" xmlns:xlink="http://www.w3.org/1999/xlink" x="0px" y="0px"
	 width="40px" height="92px" viewBox="0 0 40 92" enable-background="new 0 0 40 92" xml:space="preserve">
<linearGradient id="SVGID_1_" gradientUnits="userSpaceOnUse" x1="302.6855" y1="-372.5176" x2="302.6855" y2="-350.894" gradientTransform="matrix(1 0 0 -1 -280.5996 -281.9902)">
	<stop  offset="0.0538" style="stop-color:#E6E6E6"/>
	<stop  offset="0.5" style="stop-color:#EDF4FA"/>
	<stop  offset="0.6171" style="stop-color:#E9F0F7"/>
	<stop  offset="0.7385" style="stop-color:#DCE6EE"/>
	<stop  offset="0.8617" style="stop-color:#C8D3E0"/>
	<stop  offset="0.9856" style="stop-color:#ABBACC"/>
	<stop  offset="1" style="stop-color:#A7B7C9"/>
</linearGradient>
<path fill="url(#SVGID_1_)" stroke="#A3A3A3" stroke-width="2" stroke-linecap="round" stroke-linejoin="round" stroke-miterlimit="10" d="
	M7,70.57c0.492,3.705-0.375,6.082-1.365,11.268c-0.195,1.021-0.354,2.26-0.152,3.331c0.342,1.858,0.823,3.998,4.759,4.298
	c7.607,0.579,13.46,1.692,21.072,0.598c6.511-0.938,8.865-4.473,6.66-10.951c-1.136-3.325-1.682-6.662-1.959-10.209"/>
<radialGradient id="SVGID_2_" cx="299.625" cy="-326.3672" r="22.062" gradientTransform="matrix(1 0 0 -1 -280.5996 -281.9902)" gradientUnits="userSpaceOnUse">
	<stop  offset="0" style="stop-color:#FFFCC7"/>
	<stop  offset="1" style="stop-color:#E8BD6E"/>
</radialGradient>
<path fill="url(#SVGID_2_)" d="M7,70.57c2.317-1.606,6.368-2.658,10.132-3.342c1.015-0.184,8.492-1.158,12.097-0.373
	c1.875,0.408,5.03,0.785,6.748,2.024c-0.271-3.5-0.285-7.205-0.34-11.31c1.137-11.012-1.89-22.833-6.136-34.394
	c-1.938-5.289-5.603-6.867-8.614-2.333c-0.629,0.945-0.982,4.488-1.792,4.605c-0.706,0.103-0.989-3.848-3.03-3.848
	c-2.485,0-2.851,1.747-3.748,5.121c-0.393,1.755-1.981-0.679-2.123-0.957c-1.916-3.785-5.666-1.513-6.8,3.469
	c-2.335,10.25-1.367,21.458,1.317,31.538L7,70.57z"/>
<linearGradient id="SVGID_3_" gradientUnits="userSpaceOnUse" x1="290.9912" y1="-321.3188" x2="302.9063" y2="-321.3188" gradientTransform="matrix(1 0 0 -1 -280.5996 -281.9902)">
	<stop  offset="0" style="stop-color:#CB9B69"/>
	<stop  offset="0.3516" style="stop-color:#E5CE95"/>
	<stop  offset="0.7043" style="stop-color:#E2C685"/>
	<stop  offset="1" style="stop-color:#CB9B69"/>
</linearGradient>
<path fill="none" stroke="url(#SVGID_3_)" stroke-width="1.267" stroke-miterlimit="10" d="M11.262,27.063
	c0,0-0.799,5.881,0.535,12.729c1.465,7.522,4.897,11.992,6.904,13.536c0,0,5.927-5.88,1.04-28.706"/>
<path fill="none" stroke="#ff7071" stroke-width="1.5" stroke-linecap="round" stroke-linejoin="round" stroke-miterlimit="10" d="
	M36.016,68.904c-0.273-3.508-0.285-7.221-0.342-11.334c1.139-11.01-1.889-22.831-6.135-34.392c-1.939-5.289-5.602-6.867-8.615-2.333
	c-0.629,0.945-0.98,4.488-1.791,4.605c-0.706,0.103-0.99-3.848-3.029-3.848c-2.486,0-2.852,1.747-3.75,5.121
	c-0.391,1.755-1.98-0.679-2.122-0.957c-1.917-3.785-5.665-1.513-6.8,3.469c-2.335,10.25-1.367,21.458,1.317,31.537
	C5.628,64.066,6.567,67.313,7,70.57"/>
<linearGradient id="SVGID_4_" gradientUnits="userSpaceOnUse" x1="302.6855" y1="-372.5176" x2="302.6855" y2="-348.5435" gradientTransform="matrix(1 0 0 -1 -280.5996 -281.9902)">
	<stop  offset="0.0538" style="stop-color:#E6E6E6"/>
	<stop  offset="0.5" style="stop-color:#EDF4FA"/>
	<stop  offset="0.6171" style="stop-color:#E9F0F7"/>
	<stop  offset="0.7385" style="stop-color:#DCE6EE"/>
	<stop  offset="0.8617" style="stop-color:#C8D3E0"/>
	<stop  offset="0.9856" style="stop-color:#ABBACC"/>
	<stop  offset="1" style="stop-color:#A7B7C9"/>
</linearGradient>
<path fill="url(#SVGID_4_)" d="M37.975,79.113c-1.136-3.325-1.682-6.662-1.959-10.209c-1.709-1.262-4.898-1.639-6.787-2.049
	c-3.604-0.785-11.082,0.189-12.097,0.373C13.368,67.912,9.317,68.964,7,70.57c0.492,3.705-0.375,6.082-1.365,11.268
	c-0.195,1.021-0.354,2.26-0.152,3.331c0.342,1.858,0.823,3.998,4.759,4.298c7.607,0.579,13.46,1.692,21.072,0.598
	C37.825,89.126,40.18,85.592,37.975,79.113z"/>
</svg>
