<?xml version="1.0" encoding="utf-8"?>
<!-- Generator: Adobe Illustrator 21.1.0, SVG Export Plug-In . SVG Version: 6.00 Build 0)  -->
<svg version="1.1" id="Layer_3" xmlns="http://www.w3.org/2000/svg" xmlns:xlink="http://www.w3.org/1999/xlink" x="0px" y="0px"
	 width="28px" height="92px" viewBox="0 0 28 92" style="enable-background:new 0 0 28 92;" xml:space="preserve">
<style type="text/css">
	.st0{fill:url(#SVGID_1_);}
	.st1{fill:none;stroke:url(#SVGID_2_);stroke-width:1.267;stroke-miterlimit:10;}
	.st2{fill:none;stroke:#ff7071;stroke-width:1.5;stroke-linecap:round;stroke-linejoin:round;stroke-miterlimit:10;}
	.st3{fill:url(#SVGID_3_);stroke:#A3A3A3;stroke-width:1.9838;stroke-linecap:round;stroke-linejoin:round;stroke-miterlimit:10;}
	.st4{fill:url(#SVGID_4_);}
</style>
<g>
	
		<radialGradient id="SVGID_1_" cx="292.8739" cy="1350.0477" r="20.2279" gradientTransform="matrix(1 0 0 1 -280.5996 -1305.9902)" gradientUnits="userSpaceOnUse">
		<stop  offset="0" style="stop-color:#FFFCC7"/>
		<stop  offset="1" style="stop-color:#E8BD6E"/>
	</radialGradient>
	<path class="st0" d="M23,69.3c-2.2-9.1-2-21.8-3-31c-0.7-5.8-1.4-11.6-3-17.3c-0.5-1.8-1.4-3.3-3.4-3.5c-1.8-0.2-2.9,1.2-3.5,2.8
		c-0.3,0.9-0.3,3.1-2.3,1.6c-5.3-4-6.5,2.3-6.2,6.1c0.9,10.5,0.4,21.1,2,31.6c0.5,3,0.7,7.8,0.7,10.8l1.3-1.3c2.2-2.1,4-4.4,9.1-4
		C18.4,65.6,21.6,68,23,69.3"/>
</g>
<linearGradient id="SVGID_2_" gradientUnits="userSpaceOnUse" x1="8.1581" y1="35.378" x2="11.7338" y2="35.378">
	<stop  offset="0" style="stop-color:#CB9B69"/>
	<stop  offset="0.3516" style="stop-color:#E5CE95"/>
	<stop  offset="0.7043" style="stop-color:#E2C685"/>
	<stop  offset="1" style="stop-color:#CB9B69"/>
</linearGradient>
<path class="st1" d="M8.8,22.5c0,0,2.6,15.3,2.3,25.8"/>
<g>
	<path class="st2" d="M23,71.1c-2.2-9.1-2-23.6-3-32.8c-0.7-5.8-1.4-11.6-3-17.3c-0.5-1.8-1.4-3.3-3.4-3.5c-1.8-0.2-2.9,1.2-3.5,2.8
		c-0.3,0.9-0.3,3.1-2.3,1.6c-5.3-4-6.5,2.3-6.2,6.1c0.9,10.5,0.4,21.1,2,31.6c0.5,3,0.6,8,0.6,11l1.5,0c2.2-2.1,3.8-4.6,8.9-4.2
		c3.7,0.3,5.5,2.2,7,3.5L23,71.1z"/>
</g>
<linearGradient id="SVGID_3_" gradientUnits="userSpaceOnUse" x1="294.1133" y1="1397.0471" x2="294.1133" y2="1375.3442" gradientTransform="matrix(1 0 0 1 -280.5996 -1305.9902)">
	<stop  offset="5.380000e-02" style="stop-color:#E6E6E6"/>
	<stop  offset="0.5" style="stop-color:#EDF4FA"/>
	<stop  offset="0.6171" style="stop-color:#E9F0F7"/>
	<stop  offset="0.7385" style="stop-color:#DCE6EE"/>
	<stop  offset="0.8617" style="stop-color:#C8D3E0"/>
	<stop  offset="0.9856" style="stop-color:#ABBACC"/>
	<stop  offset="1" style="stop-color:#A7B7C9"/>
</linearGradient>
<path class="st3" d="M4.2,70.1c-0.2,2.9-0.5,4.6-1.3,7.6c-2.1,7.5,5.9,15.1,13.4,13.1c8.1-2.1,8.6-6.3,7.8-14.7
	c-0.3-2.8-0.1-3.6-0.7-6.7"/>
<linearGradient id="SVGID_4_" gradientUnits="userSpaceOnUse" x1="294.1138" y1="1397.0461" x2="294.1138" y2="1371.1768" gradientTransform="matrix(1 0 0 1 -280.5996 -1305.9902)">
	<stop  offset="5.380000e-02" style="stop-color:#E6E6E6"/>
	<stop  offset="0.5" style="stop-color:#EDF4FA"/>
	<stop  offset="0.6171" style="stop-color:#E9F0F7"/>
	<stop  offset="0.7385" style="stop-color:#DCE6EE"/>
	<stop  offset="0.8617" style="stop-color:#C8D3E0"/>
	<stop  offset="0.9856" style="stop-color:#ABBACC"/>
	<stop  offset="1" style="stop-color:#A7B7C9"/>
</linearGradient>
<path class="st4" d="M24.1,76.1c-0.3-2.8-0.1-3.6-0.7-6.7c-1.5-1.3-4.9-3.8-8.8-4.1c-5.3-0.4-6.9,1.3-9.2,3.5l-1.2,1.4
	c-0.2,2.9-0.5,4.6-1.3,7.6c-2.1,7.5,5.9,15.1,13.4,13.1C24.4,88.6,24.9,84.4,24.1,76.1z"/>
</svg>
