<?xml version="1.0" encoding="utf-8"?>
<!-- Generator: Adobe Illustrator 16.0.0, SVG Export Plug-In . SVG Version: 6.00 Build 0)  -->
<!DOCTYPE svg PUBLIC "-//W3C//DTD SVG 1.1//EN" "http://www.w3.org/Graphics/SVG/1.1/DTD/svg11.dtd">
<svg version="1.1" id="Layer_1" xmlns="http://www.w3.org/2000/svg" xmlns:xlink="http://www.w3.org/1999/xlink" x="0px" y="0px"
	 width="23px" height="90px" viewBox="0 0 23 90" enable-background="new 0 0 23 90" xml:space="preserve">
<linearGradient id="SVGID_1_" gradientUnits="userSpaceOnUse" x1="-517.4111" y1="1515.6787" x2="-517.4238" y2="1538.4473" gradientTransform="matrix(-1.1043 -5.948010e-004 -6.176105e-004 0.9919 -558.6544 -1502.4142)">
	<stop  offset="0.0538" style="stop-color:#E6E6E6"/>
	<stop  offset="0.5" style="stop-color:#EDF4FA"/>
	<stop  offset="0.6171" style="stop-color:#E9F0F7"/>
	<stop  offset="0.7385" style="stop-color:#DCE6EE"/>
	<stop  offset="0.8617" style="stop-color:#C8D3E0"/>
	<stop  offset="0.9856" style="stop-color:#ABBACC"/>
	<stop  offset="1" style="stop-color:#A7B7C9"/>
</linearGradient>
<path fill="url(#SVGID_1_)" stroke="#A3A3A3" stroke-width="2" stroke-linecap="round" stroke-linejoin="round" stroke-miterlimit="10" d="
	M19.837,23.88c0.306-2.668,0.827-5.736,1.371-9.139c0-1.493,0.208-4.447,0.101-5.934c-0.074-0.976,0.02-2.684,0.03-3.578
	c0.007-0.572-0.01-1.747-0.239-2.276c-0.732-1.681-1.449-1.69-7.535-1.626C6.445,1.402,4.233,0.874,2.922,2.368
	C2.008,3.409,2.194,6.267,2.42,8.923c-0.009,0.519-0.029,1.041,0.022,1.553c0.049,0.476,0.124,0.951,0.188,1.426
	c0,0.069,0.026,0.212,0.026,0.212c0.013,2.185,0.271,6.633,0.375,9.098"/>
<radialGradient id="SVGID_2_" cx="-573.5352" cy="1548.4531" r="20.0088" gradientTransform="matrix(-1 0 0 1 -562.127 -1501.9609)" gradientUnits="userSpaceOnUse">
	<stop  offset="0" style="stop-color:#FFFCC7"/>
	<stop  offset="1" style="stop-color:#E8BD6E"/>
</radialGradient>
<path fill="url(#SVGID_2_)" d="M3.662,19.278C4.127,31.056,5.45,45.243,6.361,53.863c0.566,5.349,1.496,11.369,4.148,16.177
	c1.361,2.462,1.839,3.952,5.367,3.623c2.063-0.192,2.319-3.062,2.377-6.212c0.063-3.29-0.246-11.4-0.188-14.666
	c0.244-13.55,0.115-19.781,1.09-28.984c-1.524,2.285-4.381,4.403-5.354,4.745c-1.098,0.384-2.561,0.227-4.593-0.766
	C7.053,26.728,4.702,22,4.702,22S4.111,20.658,3.662,19.278z"/>
<path fill="none" stroke="#ff7071" stroke-width="1.5" stroke-linecap="round" stroke-linejoin="round" stroke-miterlimit="10" d="
	M3.752,21.411C4.281,32.728,5.506,45.76,6.361,53.863c0.566,5.349,1.496,11.369,4.148,16.177c1.361,2.462,1.839,3.952,5.367,3.623
	c2.063-0.192,2.319-3.062,2.377-6.212c0.063-3.29-0.246-11.4-0.188-14.666c0.242-13.459,0.117-19.696,1.07-28.798"/>
<linearGradient id="SVGID_3_" gradientUnits="userSpaceOnUse" x1="-517.4111" y1="1515.6787" x2="-517.4266" y2="1543.3457" gradientTransform="matrix(-1.1043 -5.948010e-004 -6.176105e-004 0.9919 -558.6544 -1502.4142)">
	<stop  offset="0.0538" style="stop-color:#E6E6E6"/>
	<stop  offset="0.5" style="stop-color:#EDF4FA"/>
	<stop  offset="0.6171" style="stop-color:#E9F0F7"/>
	<stop  offset="0.7385" style="stop-color:#DCE6EE"/>
	<stop  offset="0.8617" style="stop-color:#C8D3E0"/>
	<stop  offset="0.9856" style="stop-color:#ABBACC"/>
	<stop  offset="1" style="stop-color:#A7B7C9"/>
</linearGradient>
<path fill="url(#SVGID_3_)" d="M2.42,8.923c-0.009,0.519-0.029,1.041,0.022,1.553c0.049,0.476,0.124,0.951,0.188,1.426
	c0,0.069,0.026,0.212,0.026,0.212c0.013,2.185,0.271,6.633,0.375,9.098c0.496,1.401,0.959,0.683,0.959,0.683s2.597,4.8,4.976,5.869
	c2.244,1.008,3.858,1.168,5.07,0.777c1.077-0.347,4.112-2.343,5.801-4.662c0.306-2.668,0.827-5.736,1.371-9.139
	c0-1.493,0.208-4.447,0.101-5.934c-0.074-0.976,0.02-2.684,0.03-3.578c0.007-0.572-0.01-1.747-0.239-2.276
	c-0.732-1.681-1.449-1.69-7.535-1.626C6.445,1.402,4.233,0.874,2.922,2.368C2.008,3.409,2.194,6.267,2.42,8.923z"/>
</svg>
