<?xml version="1.0" encoding="utf-8"?>
<!-- Generator: Adobe Illustrator 16.0.0, SVG Export Plug-In . SVG Version: 6.00 Build 0)  -->
<!DOCTYPE svg PUBLIC "-//W3C//DTD SVG 1.1//EN" "http://www.w3.org/Graphics/SVG/1.1/DTD/svg11.dtd">
<svg version="1.1" id="Layer_1" xmlns="http://www.w3.org/2000/svg" xmlns:xlink="http://www.w3.org/1999/xlink" x="0px" y="0px"
	 width="44px" height="90px" viewBox="0 0 44 90" enable-background="new 0 0 44 90" xml:space="preserve">
<linearGradient id="SVGID_1_" gradientUnits="userSpaceOnUse" x1="823.8779" y1="-344.3428" x2="827.7478" y2="-357.5771" gradientTransform="matrix(1.6812 0.5106 0.4916 -1.5232 -1189.6401 -943.7734)">
	<stop  offset="0.0538" style="stop-color:#E6E6E6"/>
	<stop  offset="0.5" style="stop-color:#EDF4FA"/>
	<stop  offset="0.6171" style="stop-color:#E9F0F7"/>
	<stop  offset="0.7385" style="stop-color:#DCE6EE"/>
	<stop  offset="0.8617" style="stop-color:#C8D3E0"/>
	<stop  offset="0.9856" style="stop-color:#ABBACC"/>
	<stop  offset="1" style="stop-color:#A7B7C9"/>
</linearGradient>
<path fill="url(#SVGID_1_)" stroke="#A3A3A3" stroke-width="2" stroke-linecap="round" stroke-linejoin="round" stroke-miterlimit="10" d="
	M11.785,16.9c-0.618-0.975-0.792-7.286,0.41-11.996c1.29-5.051,5.712-3.727,7.23-3.534c1.53,0.195,3.88,0.739,8.146,1.756
	c3.826,0.912,4.201,0.031,7.938,0.359c3.728,0.327,6.552,5.136,5.222,9.526c-1.334,4.39,0.08,7.86-2.696,8.811
	c-2.779,0.948-11.11,1.838-13.497,1.647C22.148,23.273,15.039,22.076,11.785,16.9z"/>
<radialGradient id="SVGID_2_" cx="825.2461" cy="-1073.2651" r="20.0832" gradientTransform="matrix(1.0309 0 0 -1 -829.6328 -1035.9707)" gradientUnits="userSpaceOnUse">
	<stop  offset="0" style="stop-color:#FFFCC7"/>
	<stop  offset="1" style="stop-color:#E8BD6E"/>
</radialGradient>
<path fill="url(#SVGID_2_)" d="M11.303,15.435c-0.755,9.762-2.498,19.467-6.921,28.494c-0.719,1.475-1.317,3.055-1.651,4.654
	c-0.445,2.185-0.715,4.004,1.39,5.39c2.313,1.521,4.242,0.133,6.009-1.14c3.434-2.478,9.945-14.202,13.022-19.6
	c1.615,5.898-5.104,17.734-5.475,21.156c-0.442,4.113,2.245,5.889,5.973,4.027c2.924-1.464,4.875-3.982,6.468-6.738
	c5.964-10.354,8.084-21.341,9.69-32.818c-1.271,1.183-7.611,4.223-13.94,4.223c-6.327,0-14.381-7.56-14.381-7.56"/>
<path fill="none" stroke="#ff7071" stroke-width="1.5" stroke-linecap="round" stroke-linejoin="round" stroke-miterlimit="10" d="
	M39.85,19.606c-1.604,11.292-3.72,21.98-9.66,32.167c-1.59,2.721-3.543,5.207-6.475,6.649c-3.72,1.839-6.407,0.085-5.961-3.976
	c0.37-3.381,7.086-15.063,5.467-20.885c-3.073,5.33-9.583,16.904-13.019,19.349c-1.767,1.256-3.695,2.623-6.009,1.124
	c-2.105-1.367-1.84-3.163-1.39-5.319c0.329-1.575,0.932-3.139,1.651-4.595c4.406-8.878,6.021-18.333,6.784-27.933"/>
<linearGradient id="SVGID_3_" gradientUnits="userSpaceOnUse" x1="823.877" y1="-344.3418" x2="827.7468" y2="-357.5762" gradientTransform="matrix(1.6812 0.5106 0.4916 -1.5232 -1189.6401 -943.7734)">
	<stop  offset="0.0538" style="stop-color:#E6E6E6"/>
	<stop  offset="0.5" style="stop-color:#EDF4FA"/>
	<stop  offset="0.6171" style="stop-color:#E9F0F7"/>
	<stop  offset="0.7385" style="stop-color:#DCE6EE"/>
	<stop  offset="0.8617" style="stop-color:#C8D3E0"/>
	<stop  offset="0.9856" style="stop-color:#ABBACC"/>
	<stop  offset="1" style="stop-color:#A7B7C9"/>
</linearGradient>
<path fill="url(#SVGID_3_)" d="M11.785,16.9c-0.618-0.975-0.792-7.286,0.41-11.996c1.29-5.051,5.712-3.727,7.23-3.534
	c1.53,0.195,3.88,0.739,8.146,1.756c3.826,0.912,4.201,0.031,7.938,0.359c3.728,0.327,6.552,5.136,5.222,9.526
	c-1.334,4.39,0.08,7.86-2.696,8.811c-2.779,0.948-11.11,1.838-13.497,1.647C22.148,23.273,15.039,22.076,11.785,16.9z"/>
</svg>
