<?xml version="1.0" encoding="utf-8"?>
<!-- Generator: Adobe Illustrator 16.0.0, SVG Export Plug-In . SVG Version: 6.00 Build 0)  -->
<!DOCTYPE svg PUBLIC "-//W3C//DTD SVG 1.1//EN" "http://www.w3.org/Graphics/SVG/1.1/DTD/svg11.dtd">
<svg version="1.1" id="Layer_2" xmlns="http://www.w3.org/2000/svg" xmlns:xlink="http://www.w3.org/1999/xlink" x="0px" y="0px"
	 width="33px" height="92px" viewBox="0 0 33 92" enable-background="new 0 0 33 92" xml:space="preserve">
<linearGradient id="SVGID_1_" gradientUnits="userSpaceOnUse" x1="298.3242" y1="-372.7222" x2="298.3242" y2="-345.5034" gradientTransform="matrix(1 0 0 -1 -280.5996 -281.9902)">
	<stop  offset="0.0538" style="stop-color:#E6E6E6"/>
	<stop  offset="0.5" style="stop-color:#EDF4FA"/>
	<stop  offset="0.6171" style="stop-color:#E9F0F7"/>
	<stop  offset="0.7385" style="stop-color:#DCE6EE"/>
	<stop  offset="0.8617" style="stop-color:#C8D3E0"/>
	<stop  offset="0.9856" style="stop-color:#ABBACC"/>
	<stop  offset="1" style="stop-color:#A7B7C9"/>
</linearGradient>
<path fill="url(#SVGID_1_)" stroke="#A3A3A3" stroke-width="2" stroke-linecap="round" stroke-linejoin="round" stroke-miterlimit="10" d="
	M5.542,64.752c-0.833,2.594-0.51,6.543-0.648,9.572c-0.212,4.74-1.654,10.464,4.055,13.252c9.66,4.716,14.779,4.188,20.209-1.859
	c2.646-2.945,1.646-6.47,0.801-9.67c-1.091-4.124-1.77-8.326-2.402-12.533"/>
<g>
	
		<radialGradient id="SVGID_2_" cx="295.1035" cy="-315.1353" r="24.5099" gradientTransform="matrix(1 0 0 -1 -280.5996 -281.9902)" gradientUnits="userSpaceOnUse">
		<stop  offset="0" style="stop-color:#FFFCC7"/>
		<stop  offset="1" style="stop-color:#E8BD6E"/>
	</radialGradient>
	<path fill="url(#SVGID_2_)" d="M5.243,65.238l1.869-1.529c2.651-2.111,3.921-3.835,7.996-4.393c0.801-0.108,3.11,0.166,4.1,0.31
		c3.582,0.517,5.967,2.343,8.349,3.888c0.014,0.094,0.028,0.188,0.043,0.279c-0.703-4.65-1.34-9.309-2.394-13.872
		c-3.854-16.628-7.185-33.539-16.977-47.9c-0.718-1.179-3.511-1.401-4.663,0C1.39,4.663,1.207,8.377,1.534,11.856
		c1.431,15.305,1.074,30.74,3.276,45.998C5.164,60.297,5.26,62.764,5.243,65.238z"/>
</g>
<g>
	<path fill="none" stroke="#ff7071" stroke-width="1.5" stroke-linecap="round" stroke-linejoin="round" stroke-miterlimit="10" d="
		M28.156,66.042c-0.702-4.649-1.896-11.558-2.95-16.121c-3.854-16.628-7.185-33.539-16.977-47.9c-0.718-1.179-3.511-1.401-4.663,0
		C1.39,4.663,1.207,8.377,1.534,11.856c1.431,15.305,1.074,30.74,3.276,45.998c0.354,2.442,0.395,7.502,0.378,9.978"/>
</g>
<linearGradient id="SVGID_3_" gradientUnits="userSpaceOnUse" x1="298.3242" y1="-372.7222" x2="298.3242" y2="-340.7451" gradientTransform="matrix(1 0 0 -1 -280.5996 -281.9902)">
	<stop  offset="0.0538" style="stop-color:#E6E6E6"/>
	<stop  offset="0.5" style="stop-color:#EDF4FA"/>
	<stop  offset="0.6171" style="stop-color:#E9F0F7"/>
	<stop  offset="0.7385" style="stop-color:#DCE6EE"/>
	<stop  offset="0.8617" style="stop-color:#C8D3E0"/>
	<stop  offset="0.9856" style="stop-color:#ABBACC"/>
	<stop  offset="1" style="stop-color:#A7B7C9"/>
</linearGradient>
<path fill="url(#SVGID_3_)" d="M27.557,63.514c-1.938-1.854-5.828-4.361-9.832-4.693c-6.065-0.502-7.38,1.99-10.571,4.6
	l-1.612,1.332c-0.833,2.594-0.51,6.543-0.648,9.572c-0.212,4.74-1.654,10.464,4.055,13.252c9.66,4.716,14.779,4.188,20.209-1.859
	c2.646-2.945,1.646-6.47,0.801-9.67C28.868,71.923,28.189,67.721,27.557,63.514z"/>
</svg>
