<?xml version="1.0" encoding="utf-8"?>
<!-- Generator: Adobe Illustrator 16.0.0, SVG Export Plug-In . SVG Version: 6.00 Build 0)  -->
<!DOCTYPE svg PUBLIC "-//W3C//DTD SVG 1.1//EN" "http://www.w3.org/Graphics/SVG/1.1/DTD/svg11.dtd">
<svg version="1.1" id="Layer_2" xmlns="http://www.w3.org/2000/svg" xmlns:xlink="http://www.w3.org/1999/xlink" x="0px" y="0px"
	 width="33px" height="92px" viewBox="0 0 33 92" enable-background="new 0 0 33 92" xml:space="preserve">
<linearGradient id="SVGID_1_" gradientUnits="userSpaceOnUse" x1="17.7246" y1="839.7139" x2="17.7246" y2="812.4951" gradientTransform="matrix(-1 0 0 1 32.2773 -748.9805)">
	<stop  offset="0.0538" style="stop-color:#E6E6E6"/>
	<stop  offset="0.5" style="stop-color:#EDF4FA"/>
	<stop  offset="0.6171" style="stop-color:#E9F0F7"/>
	<stop  offset="0.7385" style="stop-color:#DCE6EE"/>
	<stop  offset="0.8617" style="stop-color:#C8D3E0"/>
	<stop  offset="0.9856" style="stop-color:#ABBACC"/>
	<stop  offset="1" style="stop-color:#A7B7C9"/>
</linearGradient>
<path fill="url(#SVGID_1_)" stroke="#A3A3A3" stroke-width="2" stroke-linecap="round" stroke-linejoin="round" stroke-miterlimit="10" d="
	M4.721,63.514c-0.634,4.207-1.313,8.409-2.404,12.533c-0.846,3.2-1.846,6.725,0.801,9.67c5.43,6.047,10.549,6.575,20.209,1.859
	c5.71-2.788,4.267-8.512,4.056-13.252c-0.139-3.029,0.186-6.979-0.648-9.572"/>
<g>
	
		<radialGradient id="SVGID_2_" cx="14.5049" cy="782.125" r="24.5105" gradientTransform="matrix(-1 0 0 1 32.2773 -748.9805)" gradientUnits="userSpaceOnUse">
		<stop  offset="0" style="stop-color:#FFFCC7"/>
		<stop  offset="1" style="stop-color:#E8BD6E"/>
	</radialGradient>
	<path fill="url(#SVGID_2_)" d="M27.467,57.854c2.201-15.256,1.846-30.691,3.275-45.998c0.326-3.479,0.145-7.193-2.031-9.835
		c-1.152-1.401-3.945-1.179-4.664,0c-9.792,14.361-13.122,31.272-16.977,47.9c-1.054,4.563-1.69,9.222-2.394,13.872
		c0.015-0.092,0.029-0.186,0.043-0.279c2.382-1.545,4.767-3.371,8.349-3.888c0.99-0.144,3.299-0.418,4.1-0.31
		c4.075,0.558,5.346,2.281,7.996,4.393l1.869,1.529C27.016,62.764,27.111,60.297,27.467,57.854z"/>
</g>
<g>
	<path fill="none" stroke="#ff7071" stroke-width="1.5" stroke-linecap="round" stroke-linejoin="round" stroke-miterlimit="10" d="
		M27.088,67.831c-0.018-2.476,0.023-7.535,0.379-9.978c2.201-15.257,1.846-30.692,3.275-45.999c0.326-3.479,0.145-7.193-2.031-9.835
		c-1.152-1.401-3.945-1.179-4.664,0C14.255,16.381,10.925,33.292,7.07,49.92c-1.054,4.563-2.248,11.473-2.95,16.121"/>
</g>
<linearGradient id="SVGID_3_" gradientUnits="userSpaceOnUse" x1="17.7246" y1="839.7139" x2="17.7246" y2="807.7363" gradientTransform="matrix(-1 0 0 1 32.2773 -748.9805)">
	<stop  offset="0.0538" style="stop-color:#E6E6E6"/>
	<stop  offset="0.5" style="stop-color:#EDF4FA"/>
	<stop  offset="0.6171" style="stop-color:#E9F0F7"/>
	<stop  offset="0.7385" style="stop-color:#DCE6EE"/>
	<stop  offset="0.8617" style="stop-color:#C8D3E0"/>
	<stop  offset="0.9856" style="stop-color:#ABBACC"/>
	<stop  offset="1" style="stop-color:#A7B7C9"/>
</linearGradient>
<path fill="url(#SVGID_3_)" d="M2.317,76.047c-0.846,3.2-1.846,6.725,0.801,9.67c5.43,6.047,10.549,6.575,20.209,1.859
	c5.71-2.788,4.267-8.512,4.056-13.252c-0.139-3.029,0.186-6.979-0.648-9.572l-1.61-1.332c-3.19-2.609-4.506-5.102-10.571-4.6
	c-4.004,0.332-7.894,2.839-9.832,4.693C4.087,67.721,3.408,71.923,2.317,76.047z"/>
</svg>
