<?xml version="1.0" encoding="utf-8"?>
<!-- Generator: Adobe Illustrator 16.0.0, SVG Export Plug-In . SVG Version: 6.00 Build 0)  -->
<!DOCTYPE svg PUBLIC "-//W3C//DTD SVG 1.1//EN" "http://www.w3.org/Graphics/SVG/1.1/DTD/svg11.dtd">
<svg version="1.1" id="Layer_1" xmlns="http://www.w3.org/2000/svg" xmlns:xlink="http://www.w3.org/1999/xlink" x="0px" y="0px"
	 width="28px" height="90px" viewBox="0 0 28 90" enable-background="new 0 0 28 90" xml:space="preserve">
<g id="Layer_1_1_" display="none">
	
		<image display="inline" overflow="visible" enable-background="new    " width="28" height="90" xlink:href="dis-45.png"  transform="matrix(0.24 0 0 0.24 -7897.7617 -7781.8096)">
	</image>
</g>
<linearGradient id="SVGID_1_" gradientUnits="userSpaceOnUse" x1="574.2383" y1="779.1484" x2="574.2231" y2="806.2002" gradientTransform="matrix(1 -5.791084e-004 5.592712e-004 0.9657 -561.2054 -750.6813)">
	<stop  offset="0.0538" style="stop-color:#E6E6E6"/>
	<stop  offset="0.5" style="stop-color:#EDF4FA"/>
	<stop  offset="0.6171" style="stop-color:#E9F0F7"/>
	<stop  offset="0.7385" style="stop-color:#DCE6EE"/>
	<stop  offset="0.8617" style="stop-color:#C8D3E0"/>
	<stop  offset="0.9856" style="stop-color:#ABBACC"/>
	<stop  offset="1" style="stop-color:#A7B7C9"/>
</linearGradient>
<path fill="url(#SVGID_1_)" stroke="#A3A3A3" stroke-width="2" stroke-linecap="round" stroke-linejoin="round" stroke-miterlimit="10" d="
	M23.434,6.1c-2.229-3.896-7.637-5.728-11.646-4.091C3.031,5.585,1.713,7.178,3.032,14.111c0.756,3.967,1.583,7.847,1.553,11.911
	c0.003,0.001,0.008,0.003,0.012,0.005c0,0,5.798,1.575,7.78,1.504c2.375-0.085,9.165-2.459,9.165-2.459
	c0.142-0.092,0.282-0.185,0.401-0.283c0.457-3.858,1.06-7.699,1.938-11.505C24.423,10.938,24.718,8.348,23.434,6.1z"/>
<radialGradient id="SVGID_2_" cx="574.2852" cy="802.9082" r="20.2336" gradientTransform="matrix(1 0 0 1 -561.1992 -750.9805)" gradientUnits="userSpaceOnUse">
	<stop  offset="0" style="stop-color:#FFFCC7"/>
	<stop  offset="1" style="stop-color:#E8BD6E"/>
</radialGradient>
<path fill="url(#SVGID_2_)" d="M4.589,25.875c-0.004,1-0.023,0.956-0.058,1.505c-0.857,13.337,0.526,26.7,1.591,39.946
	c-0.01,1.855-0.069,3.771-0.017,5.624c0.073,2.651,0.563,5.268,3.262,6.034c2.844,0.807,4.092-1.512,5.209-3.83
	c3.01-6.229,4.05-13.021,4.846-19.897c1.163-10.053,1.348-20.49,2.485-30.549"/>
<path fill="none" stroke="#ff7071" stroke-width="1.5" stroke-linecap="round" stroke-linejoin="round" stroke-miterlimit="10" d="
	M21.907,25.341c-1.14,10.059-1.322,19.871-2.485,29.925c-0.796,6.877-1.836,13.678-4.846,19.903
	c-1.118,2.317-2.365,4.651-5.209,3.847c-2.699-0.768-3.189-3.354-3.262-6.005c-0.052-1.852,0.007-3.708,0.017-5.563
	c-1.065-13.247-2.448-26.49-1.591-39.826c0.035-0.549,0.054-1.66,0.058-2.203"/>
<linearGradient id="SVGID_3_" gradientUnits="userSpaceOnUse" x1="574.2383" y1="779.1484" x2="574.2231" y2="806.2002" gradientTransform="matrix(1 -5.791084e-004 5.592712e-004 0.9657 -561.2054 -750.6813)">
	<stop  offset="0.0538" style="stop-color:#E6E6E6"/>
	<stop  offset="0.5" style="stop-color:#EDF4FA"/>
	<stop  offset="0.6171" style="stop-color:#E9F0F7"/>
	<stop  offset="0.7385" style="stop-color:#DCE6EE"/>
	<stop  offset="0.8617" style="stop-color:#C8D3E0"/>
	<stop  offset="0.9856" style="stop-color:#ABBACC"/>
	<stop  offset="1" style="stop-color:#A7B7C9"/>
</linearGradient>
<path fill="url(#SVGID_3_)" d="M23.434,6.1c-2.229-3.896-7.637-5.728-11.646-4.091C3.031,5.585,1.713,7.178,3.032,14.111
	c0.756,3.967,1.583,7.847,1.553,11.911c0.003,0.001,0.008,0.003,0.012,0.005c0,0,5.798,1.575,7.78,1.504
	c2.375-0.085,9.165-2.459,9.165-2.459c0.142-0.092,0.282-0.185,0.401-0.283c0.457-3.858,1.06-7.699,1.938-11.505
	C24.423,10.938,24.718,8.348,23.434,6.1z"/>
</svg>
