<?xml version="1.0" encoding="utf-8"?>
<!-- Generator: Adobe Illustrator 16.0.0, SVG Export Plug-In . SVG Version: 6.00 Build 0)  -->
<!DOCTYPE svg PUBLIC "-//W3C//DTD SVG 1.1//EN" "http://www.w3.org/Graphics/SVG/1.1/DTD/svg11.dtd">
<svg version="1.1" id="Layer_2" xmlns="http://www.w3.org/2000/svg" xmlns:xlink="http://www.w3.org/1999/xlink" x="0px" y="0px"
	 width="28px" height="92px" viewBox="0 0 28 92" enable-background="new 0 0 28 92" xml:space="preserve">
<linearGradient id="SVGID_1_" gradientUnits="userSpaceOnUse" x1="12.3647" y1="840.1406" x2="12.3647" y2="817.9834" gradientTransform="matrix(-1 0 0 1 25.3594 -748.9805)">
	<stop  offset="0.0538" style="stop-color:#E6E6E6"/>
	<stop  offset="0.5" style="stop-color:#EDF4FA"/>
	<stop  offset="0.6171" style="stop-color:#E9F0F7"/>
	<stop  offset="0.7385" style="stop-color:#DCE6EE"/>
	<stop  offset="0.8617" style="stop-color:#C8D3E0"/>
	<stop  offset="0.9856" style="stop-color:#ABBACC"/>
	<stop  offset="1" style="stop-color:#A7B7C9"/>
</linearGradient>
<path fill="url(#SVGID_1_)" stroke="#A3A3A3" stroke-width="2" stroke-linecap="round" stroke-linejoin="round" stroke-miterlimit="10" d="
	M4.05,69.988c-0.467,3.109-2.746,7.029-2.561,10.862c0,5.212,8.486,11.301,13.611,10.172c8.183-1.816,11.107-6.448,8.469-14.68
	c-0.752-2.335-1.239-4.651-1.521-6.975l-0.062-0.366"/>
<radialGradient id="SVGID_2_" cx="12.2339" cy="794.459" r="18.0589" gradientTransform="matrix(-1 0 0 1 25.3594 -748.9805)" gradientUnits="userSpaceOnUse">
	<stop  offset="0" style="stop-color:#FFFCC7"/>
	<stop  offset="1" style="stop-color:#E8BD6E"/>
</radialGradient>
<path fill="url(#SVGID_2_)" d="M21.295,60.439c0.859-11.219-0.938-22.397-0.834-33.621c0.021-2.405-0.846-4.628-3.207-5.312
	c-2.627-0.759-3.738,1.603-4.771,3.515c-0.744,1.373-1.219,2.989-1.513,4.562C8.544,42.642,5.606,55.605,4.782,68.96
	c-0.012,0.213-0.035,0.424-0.059,0.636c1.401-1.645,4.595-4.47,7.871-4.303c4.436,0.228,7.189,1.119,8.663,3.211
	C21.043,65.857,21.082,63.188,21.295,60.439z"/>
<path fill="none" stroke="#ff7071" stroke-width="1.5" stroke-linecap="round" stroke-linejoin="round" stroke-miterlimit="10" d="
	M21.295,60.439c0.859-11.219-0.938-22.397-0.834-33.621c0.021-2.405-0.846-4.628-3.207-5.312c-2.627-0.759-3.738,1.603-4.771,3.515
	c-0.744,1.373-1.219,2.989-1.513,4.562C8.544,42.642,5.606,55.605,4.782,68.96c-0.01,0.16-0.043,1.788-0.059,1.946
	c1.485-1.684,4.809-5.068,8.034-4.906c4.382,0.223,7.521,1.598,9.042,3.596C21.6,67.001,21.086,63.132,21.295,60.439z"/>
<linearGradient id="SVGID_3_" gradientUnits="userSpaceOnUse" x1="12.3647" y1="840.1406" x2="12.3647" y2="813.8086" gradientTransform="matrix(-1 0 0 1 25.3594 -748.9805)">
	<stop  offset="0.0538" style="stop-color:#E6E6E6"/>
	<stop  offset="0.5" style="stop-color:#EDF4FA"/>
	<stop  offset="0.6171" style="stop-color:#E9F0F7"/>
	<stop  offset="0.7385" style="stop-color:#DCE6EE"/>
	<stop  offset="0.8617" style="stop-color:#C8D3E0"/>
	<stop  offset="0.9856" style="stop-color:#ABBACC"/>
	<stop  offset="1" style="stop-color:#A7B7C9"/>
</linearGradient>
<path fill="url(#SVGID_3_)" d="M1.489,80.851c0,5.212,8.486,11.301,13.611,10.172c8.183-1.816,11.107-6.448,8.469-14.68
	c-0.752-2.335-1.239-4.651-1.521-6.975l-0.062-0.366c-1.307-2.586-4.223-3.91-9.366-4.168c-4.424-0.22-8.57,5.154-8.57,5.154
	C3.583,73.098,1.304,77.018,1.489,80.851z"/>
</svg>
