<?xml version="1.0" encoding="utf-8"?>
<!-- Generator: Adobe Illustrator 16.0.0, SVG Export Plug-In . SVG Version: 6.00 Build 0)  -->
<!DOCTYPE svg PUBLIC "-//W3C//DTD SVG 1.1//EN" "http://www.w3.org/Graphics/SVG/1.1/DTD/svg11.dtd">
<svg version="1.1" id="Layer_1" xmlns="http://www.w3.org/2000/svg" xmlns:xlink="http://www.w3.org/1999/xlink" x="0px" y="0px"
	 width="43px" height="90px" viewBox="0 0 43 90" enable-background="new 0 0 43 90" xml:space="preserve">
<linearGradient id="SVGID_1_" gradientUnits="userSpaceOnUse" x1="787.4551" y1="-449.2969" x2="790.1185" y2="-463.6882" gradientTransform="matrix(1.674 0.3436 0.3098 -1.51 -1154.7479 -947.7356)">
	<stop  offset="0.0538" style="stop-color:#E6E6E6"/>
	<stop  offset="0.5" style="stop-color:#EDF4FA"/>
	<stop  offset="0.6171" style="stop-color:#E9F0F7"/>
	<stop  offset="0.7385" style="stop-color:#DCE6EE"/>
	<stop  offset="0.8617" style="stop-color:#C8D3E0"/>
	<stop  offset="0.9856" style="stop-color:#ABBACC"/>
	<stop  offset="1" style="stop-color:#A7B7C9"/>
</linearGradient>
<path fill="url(#SVGID_1_)" stroke="#A3A3A3" stroke-width="2" stroke-linecap="round" stroke-linejoin="round" stroke-miterlimit="10" d="
	M8.647,20.693c0,0,0.026-1.465,0.018-3.348c-0.021-4.755-1.22-7.159-0.768-10.138c0.916-6.004,8.101-5.82,9.589-5.769
	c1.494,0.051,4.236,0.467,8.5,0.481c3.654,0.011,4.345-0.492,7.896-0.284c3.623,0.212,8.115,2.577,6.509,9.4
	c-1.063,4.517-0.994,7.362-1.83,9.272c-0.974,2.216-10.565,3.572-12.883,3.604c-1.193,0.016-5.667,0.01-9.851-0.835
	C11.9,22.279,8.647,20.693,8.647,20.693z"/>
<radialGradient id="SVGID_2_" cx="856.9863" cy="-1081.0605" r="21.5318" gradientTransform="matrix(1 0 0 -1 -836.2988 -1035.9707)" gradientUnits="userSpaceOnUse">
	<stop  offset="0" style="stop-color:#FFFCC7"/>
	<stop  offset="1" style="stop-color:#E8BD6E"/>
</radialGradient>
<path fill="url(#SVGID_2_)" d="M23.497,23.771c-8.414-0.438-12.811-2.154-14.376-3.202l-0.202,0.003
	c-0.795,11.522-1.121,23.825-4.51,35.021c-0.917,3.025-2.794,6.084,0.867,7.778c3.436,1.591,6.141-1.436,8.171-4.314
	c1.504-2.13,8.297-16.34,9.45-19.057c0.256,4.578-4.135,19.91-4.081,22.938c0.056,3.119-0.265,5.678,3.106,6.737
	c3.326,1.048,4.794-1.054,6.156-3.389c6.059-10.382,8.846-21.887,9.658-33.929c0.285-4.182,0.045-7.984,0.533-12.129
	C38.27,20.229,32.288,24.227,23.497,23.771z"/>
<path fill="none" stroke="#ff7071" stroke-width="1.5" stroke-linecap="round" stroke-linejoin="round" stroke-miterlimit="10" d="
	M8.917,20.572c-0.795,11.522-1.121,23.825-4.51,35.021c-0.917,3.025-2.794,6.084,0.867,7.778c3.436,1.591,6.141-1.436,8.171-4.314
	c1.504-2.13,8.297-16.34,9.45-19.057c0.256,4.578-4.137,19.91-4.081,22.938c0.056,3.119-0.265,5.678,3.106,6.737
	c3.327,1.048,4.793-1.054,6.155-3.389c6.059-10.382,8.848-21.887,9.659-33.929C38.02,28.175,37.779,25.145,38.27,21"/>
<linearGradient id="SVGID_3_" gradientUnits="userSpaceOnUse" x1="787.4551" y1="-449.2964" x2="790.1185" y2="-463.6882" gradientTransform="matrix(1.674 0.3436 0.3098 -1.51 -1154.7479 -947.7356)">
	<stop  offset="0.0538" style="stop-color:#E6E6E6"/>
	<stop  offset="0.5" style="stop-color:#EDF4FA"/>
	<stop  offset="0.6171" style="stop-color:#E9F0F7"/>
	<stop  offset="0.7385" style="stop-color:#DCE6EE"/>
	<stop  offset="0.8617" style="stop-color:#C8D3E0"/>
	<stop  offset="0.9856" style="stop-color:#ABBACC"/>
	<stop  offset="1" style="stop-color:#A7B7C9"/>
</linearGradient>
<path fill="url(#SVGID_3_)" d="M8.647,20.693c0,0,0.026-1.465,0.018-3.348c-0.021-4.755-1.22-7.159-0.768-10.138
	c0.916-6.004,8.101-5.82,9.589-5.769c1.494,0.051,4.236,0.467,8.5,0.481c3.654,0.011,4.345-0.492,7.896-0.284
	c3.623,0.212,8.115,2.577,6.509,9.4c-1.063,4.517-0.994,7.362-1.83,9.272c-0.974,2.216-10.565,3.572-12.883,3.604
	c-1.193,0.016-5.667,0.01-9.851-0.835C11.9,22.279,8.647,20.693,8.647,20.693z"/>
</svg>
