<?xml version="1.0" encoding="utf-8"?>
<!-- Generator: Adobe Illustrator 16.0.0, SVG Export Plug-In . SVG Version: 6.00 Build 0)  -->
<!DOCTYPE svg PUBLIC "-//W3C//DTD SVG 1.1//EN" "http://www.w3.org/Graphics/SVG/1.1/DTD/svg11.dtd">
<svg version="1.1" id="Layer_1" xmlns="http://www.w3.org/2000/svg" xmlns:xlink="http://www.w3.org/1999/xlink" x="0px" y="0px"
	 width="45px" height="90px" viewBox="0 0 45 90" enable-background="new 0 0 45 90" xml:space="preserve">
<linearGradient id="SVGID_1_" gradientUnits="userSpaceOnUse" x1="-501.583" y1="2334.8936" x2="-501.5955" y2="2357.4375" gradientTransform="matrix(-1 -5.791085e-004 -5.592713e-004 0.9657 -478.983 -2253.5994)">
	<stop  offset="0.0538" style="stop-color:#E6E6E6"/>
	<stop  offset="0.5" style="stop-color:#EDF4FA"/>
	<stop  offset="0.6171" style="stop-color:#E9F0F7"/>
	<stop  offset="0.7385" style="stop-color:#DCE6EE"/>
	<stop  offset="0.8617" style="stop-color:#C8D3E0"/>
	<stop  offset="0.9856" style="stop-color:#ABBACC"/>
	<stop  offset="1" style="stop-color:#A7B7C9"/>
</linearGradient>
<path fill="url(#SVGID_1_)" stroke="#A3A3A3" stroke-width="2" stroke-linecap="round" stroke-linejoin="round" stroke-miterlimit="10" d="
	M37.402,23.053c0,0,0-0.029,0.006-0.071c-0.016-1.193,0.17-2.357,0.436-3.512c0.057-0.256,0.115-0.512,0.186-0.756
	c0.004-0.014,0.009-0.025,0.013-0.041c0.271-1.057,0.578-2.111,0.836-3.177c0.039-0.17,0.078-0.336,0.114-0.496
	c0.005-0.023,0.011-0.048,0.017-0.072c0.039-0.18,0.076-0.356,0.108-0.524c0.035-0.185,0.07-0.37,0.101-0.556
	c0.009-0.05,0.017-0.099,0.022-0.147c0.07-0.464,0.123-0.932,0.146-1.404c0.021-0.404,0.03-0.785,0.034-1.157
	c-0.002-0.565-0.022-1.185-0.062-1.91c-0.018-0.167-0.021-0.342-0.043-0.502c-0.002-0.038-0.01-0.072-0.014-0.11
	c-0.191-1.561-0.643-2.724-1.381-3.612c-0.086-0.1-0.166-0.207-0.258-0.299c-0.035-0.036-0.074-0.065-0.109-0.101
	c-0.166-0.157-0.34-0.309-0.521-0.445c-0.008-0.002-0.012-0.004-0.014-0.006C36.803,4,36.582,3.859,36.341,3.73
	c-0.004-0.003-0.01-0.002-0.016-0.005c-0.236-0.128-0.479-0.239-0.731-0.344c-0.005,0-0.007,0.009-0.011,0.008
	c-2.043-0.84-4.612-0.946-6.922-1.226c-0.951-0.055-1.899-0.032-2.851-0.03c-1.756,0.03-4.054,0.236-6.773,0.236
	c-0.049,0-0.09,0-0.137,0c-0.076,0-0.148,0-0.223,0c-1.737,0-2.803-0.118-3.85-0.217c-0.965-0.078-1.932-0.282-2.898-0.46
	c-0.354-0.05-0.738-0.103-1.164-0.161C10.14,1.478,9.547,1.487,8.99,1.555C8.877,1.571,8.768,1.591,8.657,1.613
	C8.549,1.63,8.446,1.65,8.34,1.672C7.004,1.994,5.664,2.728,4.731,3.954c-0.047,0.064-0.09,0.132-0.137,0.197
	c-0.156,0.224-0.301,0.46-0.43,0.709C4.136,4.916,4.104,4.97,4.078,5.027C3.782,5.635,3.561,6.299,3.404,6.979
	C3.213,7.872,3.133,8.852,3.181,9.907c0.016,0.344,0.008,0.705,0.018,1.06c0.063,0.435,0.141,0.841,0.256,1.167
	c0.133,0.376,0.266,0.778,0.395,1.188c0.426,1.109,0.744,2.221,0.975,3.336c0.016,0.057,0.033,0.119,0.049,0.174
	c0.365,1.284,0.631,3.688,0.484,6.434"/>
<g>
	
		<radialGradient id="SVGID_2_" cx="-502.1938" cy="2302.6553" r="22.9047" gradientTransform="matrix(-1 0 0 1 -478.9863 -2253.9414)" gradientUnits="userSpaceOnUse">
		<stop  offset="0" style="stop-color:#FFFCC7"/>
		<stop  offset="1" style="stop-color:#E8BD6E"/>
	</radialGradient>
	<path fill="url(#SVGID_2_)" d="M5.045,34.071C3.707,46.986,6.978,58.504,12.6,69.613c0.361,0.711,1.654,2.557,2.186,3.143
		c1.961,2.154,3.252,3.445,6.418,1.889c3.073-1.51,2.43-4.84,1.997-7.793c-0.919-6.258-4.5-14.953-2.046-23.078
		c1.902,7.612,5.521,18.77,10.292,24.794c1.811,2.289,4.279,5.634,7.686,3.953c3.443-1.696,2.664-5.709,1.785-8.614
		c-3.943-13.033-1.85-26.604-3.451-39.814c-0.047-0.381-0.059-0.769-0.063-1.144c-0.002,0.044-0.146,0.073-0.146,0.073
		s-2.771,0.944-7.171,1.445c-4.541,0.517-8.299,0.4-9.577,0.39c-2.473-0.017-15.162-0.2-15.156-2.76L5.045,34.071z"/>
</g>
<path fill="none" stroke="#ff7071" stroke-width="1.5" stroke-linecap="round" stroke-miterlimit="10" d="M36.814,23.017
	c1.603,13.211,0.318,27.858,4.267,40.891c0.879,2.904,1.655,6.918-1.785,8.613c-3.403,1.682-5.875-1.664-7.687-3.953
	c-4.771-6.023-8.391-17.18-10.292-24.793c-2.453,8.125,1.127,16.821,2.046,23.079c0.435,2.953,1.076,6.283-1.996,7.793
	c-3.169,1.56-4.575,0.836-6.536-1.313c-0.531-0.586-1.541-2.396-2.231-3.716c-6.207-11.854-8.304-22.62-6.966-35.533
	c0.41-3.971,0.253-6.356,0.254-10.315"/>
<linearGradient id="SVGID_3_" gradientUnits="userSpaceOnUse" x1="-501.583" y1="2334.8936" x2="-501.5964" y2="2359.1025" gradientTransform="matrix(-1 -5.791085e-004 -5.592713e-004 0.9657 -478.983 -2253.5994)">
	<stop  offset="0.0538" style="stop-color:#E6E6E6"/>
	<stop  offset="0.5" style="stop-color:#EDF4FA"/>
	<stop  offset="0.6171" style="stop-color:#E9F0F7"/>
	<stop  offset="0.7385" style="stop-color:#DCE6EE"/>
	<stop  offset="0.8617" style="stop-color:#C8D3E0"/>
	<stop  offset="0.9856" style="stop-color:#ABBACC"/>
	<stop  offset="1" style="stop-color:#A7B7C9"/>
</linearGradient>
<path fill="url(#SVGID_3_)" d="M3.199,10.967c0.063,0.435,0.141,0.841,0.256,1.167c0.133,0.376,0.266,0.778,0.395,1.188
	c0.426,1.109,0.744,2.221,0.975,3.336c0.016,0.057,0.033,0.119,0.049,0.174c0.365,1.284,0.631,3.688,0.484,6.434
	c-0.057,1.058,12.822,1.574,15.297,1.591c1.277,0.01,5.035,0.125,9.576-0.384c4.397-0.493,7.172-1.422,7.172-1.422
	s0-0.029,0.006-0.071c-0.016-1.193,0.17-2.357,0.436-3.512c0.057-0.256,0.115-0.512,0.186-0.756
	c0.004-0.014,0.009-0.025,0.013-0.041c0.271-1.057,0.578-2.111,0.836-3.177c0.039-0.17,0.078-0.336,0.114-0.496
	c0.005-0.023,0.011-0.048,0.017-0.072c0.039-0.18,0.076-0.356,0.108-0.524c0.035-0.185,0.07-0.37,0.101-0.556
	c0.009-0.05,0.017-0.099,0.022-0.147c0.07-0.464,0.123-0.932,0.146-1.404c0.021-0.404,0.03-0.785,0.034-1.157
	c-0.002-0.565-0.022-1.185-0.062-1.91c-0.018-0.167-0.021-0.342-0.043-0.502c-0.002-0.038-0.01-0.072-0.014-0.11
	c-0.191-1.561-0.643-2.724-1.381-3.612c-0.086-0.1-0.166-0.207-0.258-0.299c-0.035-0.036-0.074-0.065-0.109-0.101
	c-0.166-0.157-0.34-0.309-0.521-0.445c-0.008-0.002-0.012-0.004-0.014-0.006C36.803,4,36.582,3.859,36.341,3.73
	c-0.004-0.003-0.01-0.002-0.016-0.005c-0.236-0.128-0.479-0.239-0.731-0.344c-0.005,0-0.007,0.009-0.011,0.008
	c-2.043-0.84-4.612-0.946-6.922-1.226c-0.951-0.055-1.899-0.032-2.851-0.03c-1.756,0.03-4.054,0.236-6.773,0.236
	c-0.049,0-0.09,0-0.137,0c-0.076,0-0.148,0-0.223,0c-1.737,0-2.803-0.118-3.85-0.217c-0.965-0.078-1.932-0.282-2.898-0.46
	c-0.354-0.05-0.738-0.103-1.164-0.161C10.14,1.478,9.547,1.487,8.99,1.555C8.877,1.571,8.768,1.591,8.657,1.613
	C8.549,1.63,8.446,1.65,8.34,1.672C7.004,1.994,5.664,2.728,4.731,3.954c-0.047,0.064-0.09,0.132-0.137,0.197
	c-0.156,0.224-0.301,0.46-0.43,0.709C4.136,4.916,4.104,4.97,4.078,5.027C3.782,5.635,3.561,6.299,3.404,6.979
	C3.213,7.872,3.133,8.852,3.181,9.907C3.197,10.25,3.189,10.612,3.199,10.967z"/>
</svg>
