<?xml version="1.0" encoding="utf-8"?>
<!-- Generator: Adobe Illustrator 16.0.0, SVG Export Plug-In . SVG Version: 6.00 Build 0)  -->
<!DOCTYPE svg PUBLIC "-//W3C//DTD SVG 1.1//EN" "http://www.w3.org/Graphics/SVG/1.1/DTD/svg11.dtd">
<svg version="1.1" id="Layer_1" xmlns="http://www.w3.org/2000/svg" xmlns:xlink="http://www.w3.org/1999/xlink" x="0px" y="0px"
	 width="27px" height="90px" viewBox="0 0 27 90" enable-background="new 0 0 27 90" xml:space="preserve">
<radialGradient id="SVGID_1_" cx="-854.4414" cy="-1835.3892" r="20.0332" gradientTransform="matrix(-1 0 0 -1 -840.3223 -1784.9512)" gradientUnits="userSpaceOnUse">
	<stop  offset="0" style="stop-color:#FFFCC7"/>
	<stop  offset="1" style="stop-color:#E8BD6E"/>
</radialGradient>
<path fill="url(#SVGID_1_)" d="M5.732,37.895C5.505,48.589,7.312,58.934,9.41,69.271c0.227,1.123,0.512,2.265,0.957,3.304
	c1.125,2.618,2.54,5.407,5.648,4.845c3.217-0.583,2.94-3.923,2.922-6.449C18.83,57.52,22.994,44.54,22.482,28.825
	c-0.101-1.997-0.107-3.658-0.063-5.113c-1.067,1.236-3.271,3.62-4.89,4.221c-2.33,0.864-4.305,0.756-5.5,0.403
	C10.89,28,7.431,25.758,5.947,23.383C6.058,28.216,5.835,33.064,5.732,37.895z"/>
<linearGradient id="SVGID_2_" gradientUnits="userSpaceOnUse" x1="-174.4609" y1="-630.5078" x2="-170.4022" y2="-640.9363" gradientTransform="matrix(-1.3528 0.268 -0.5265 -2.48 -554.0575 -1518.0299)">
	<stop  offset="0.0538" style="stop-color:#E6E6E6"/>
	<stop  offset="0.5" style="stop-color:#EDF4FA"/>
	<stop  offset="0.6171" style="stop-color:#E9F0F7"/>
	<stop  offset="0.7385" style="stop-color:#DCE6EE"/>
	<stop  offset="0.8617" style="stop-color:#C8D3E0"/>
	<stop  offset="0.9856" style="stop-color:#ABBACC"/>
	<stop  offset="1" style="stop-color:#A7B7C9"/>
</linearGradient>
<path fill="url(#SVGID_2_)" stroke="#A3A3A3" stroke-width="2" stroke-linecap="round" stroke-linejoin="round" stroke-miterlimit="10" d="
	M5.089,21.872c-0.36-2.585,0.119-3.722-1.117-9.408c-0.467-2.162-0.775-3.684-0.69-5.455c0.203-4.141,1.545-5.724,3.786-5.771
	c2.255-0.048,3.984-0.19,6.752-0.12c2.731,0.069,3.518,0.09,4.446,0.215c0.93,0.125,5.521,0.415,6.146,6.012
	c0.418,3.747-0.129,7.507-0.479,9.966c-0.231,1.641-0.713,5.823-0.713,5.823"/>
<g>
	
		<path fill="none" stroke="#ff7071" stroke-width="1.5245" stroke-linecap="round" stroke-linejoin="round" stroke-miterlimit="10" d="
		M18.936,70.969c0.021,2.527,0.297,5.867-2.922,6.45c-3.108,0.562-4.521-2.226-5.646-4.845c-0.446-1.039-0.729-2.18-0.957-3.303
		c-2.098-10.34-3.905-20.688-3.678-31.377c0.204-9.382,0.86-18.826-1.368-28.112C3.995,8.258,4.279,6.486,4.52,4.873
		c0.274-1.824,1.31-2.705,3.215-2.734c3.629-0.054,6.544-0.124,9.75,0.057c4.91,0.28,6.242,2.962,6.188,7.764
		c-0.077,7.06-1.675,8.976-1.188,18.864C22.991,44.54,18.829,57.52,18.936,70.969z"/>
</g>
<linearGradient id="SVGID_3_" gradientUnits="userSpaceOnUse" x1="-174.4609" y1="-630.5078" x2="-169.8457" y2="-642.3662" gradientTransform="matrix(-1.3528 0.268 -0.5265 -2.48 -554.0575 -1518.0299)">
	<stop  offset="0.0538" style="stop-color:#E6E6E6"/>
	<stop  offset="0.5" style="stop-color:#EDF4FA"/>
	<stop  offset="0.6171" style="stop-color:#E9F0F7"/>
	<stop  offset="0.7385" style="stop-color:#DCE6EE"/>
	<stop  offset="0.8617" style="stop-color:#C8D3E0"/>
	<stop  offset="0.9856" style="stop-color:#ABBACC"/>
	<stop  offset="1" style="stop-color:#A7B7C9"/>
</linearGradient>
<path fill="url(#SVGID_3_)" d="M17.587,28.213c-2.377,0.882-4.393,0.771-5.611,0.411c-1.434-0.423-6.471-3.807-6.887-6.752
	c-0.36-2.585,0.119-3.722-1.117-9.408c-0.467-2.162-0.775-3.684-0.69-5.455c0.203-4.141,1.545-5.724,3.786-5.771
	c2.255-0.048,3.984-0.19,6.752-0.12c2.731,0.069,3.518,0.09,4.446,0.215c0.93,0.125,5.521,0.415,6.146,6.012
	c0.418,3.747-0.129,7.507-0.479,9.966c-0.231,1.641-0.713,5.823-0.713,5.823S19.841,27.375,17.587,28.213z"/>
</svg>
