<?xml version="1.0" encoding="utf-8"?>
<!-- Generator: Adobe Illustrator 16.0.0, SVG Export Plug-In . SVG Version: 6.00 Build 0)  -->
<!DOCTYPE svg PUBLIC "-//W3C//DTD SVG 1.1//EN" "http://www.w3.org/Graphics/SVG/1.1/DTD/svg11.dtd">
<svg version="1.1" id="Layer_2" xmlns="http://www.w3.org/2000/svg" xmlns:xlink="http://www.w3.org/1999/xlink" x="0px" y="0px"
	 width="34px" height="92px" viewBox="0 0 34 92" enable-background="new 0 0 34 92" xml:space="preserve">
<linearGradient id="SVGID_1_" gradientUnits="userSpaceOnUse" x1="315.9375" y1="-1268.4326" x2="315.9375" y2="-1249.2603" gradientTransform="matrix(-0.8932 0 0 -0.8901 298.7576 -1039.0364)">
	<stop  offset="0.0538" style="stop-color:#E6E6E6"/>
	<stop  offset="0.5" style="stop-color:#EDF4FA"/>
	<stop  offset="0.6171" style="stop-color:#E9F0F7"/>
	<stop  offset="0.7385" style="stop-color:#DCE6EE"/>
	<stop  offset="0.8617" style="stop-color:#C8D3E0"/>
	<stop  offset="0.9856" style="stop-color:#ABBACC"/>
	<stop  offset="1" style="stop-color:#A7B7C9"/>
</linearGradient>
<path fill="url(#SVGID_1_)" stroke="#A3A3A3" stroke-width="2" stroke-linecap="round" stroke-linejoin="round" stroke-miterlimit="10" d="
	M4.73,72.93c-0.817,4.076-2.12,5.563-2.074,9.529c0.056,5.083,1.51,7.58,6.399,7.536c5.767-0.062,11.551-0.222,17.264-1.396
	c2.849-0.584,4.537-2.508,4.072-4.811c-0.9-4.516-1.033-5.882-1.137-9.688"/>
<g>
	
		<radialGradient id="SVGID_2_" cx="17.6777" cy="801.0371" r="17.7782" gradientTransform="matrix(-1 0 0 1 34.5957 -748.9805)" gradientUnits="userSpaceOnUse">
		<stop  offset="0" style="stop-color:#FFFCC7"/>
		<stop  offset="1" style="stop-color:#E8BD6E"/>
	</radialGradient>
	<path fill="url(#SVGID_2_)" d="M27.01,38.892c-0.441-2.128-0.906-4.568-2.781-6.144c-0.625-0.528-0.795-0.7-1.676-0.729
		c-2.574-0.092-2.173,2.003-2.888,2c-1.067-0.005-0.453-3.092-1.653-3.672c-0.527-0.255-1.508-0.332-1.945-0.067
		c-1.385,0.847-1.301,2.128-1.963,2.18c-0.565,0.045-0.57-1.346-1.009-1.779c-0.63-0.618-1.655-0.338-2.188-0.164
		c-1.529,0.498-2.627,2.625-3.129,3.976c-1.383,3.736-1.445,7.907-1.74,11.903c-0.521,6.97-0.797,13.629-1.291,21.608
		c0.04,1.989,0.109,4.197-0.104,5.497c1.176-1.429,2.998-3.234,4.813-3.609c3.061-0.635,9.31-0.226,10.168-0.077
		c3.565,0.614,7.798,2.681,9.569,4.185C28.593,63.396,30.266,54.537,27.01,38.892z"/>
</g>
<linearGradient id="SVGID_3_" gradientUnits="userSpaceOnUse" x1="14.3994" y1="792.1309" x2="21.1514" y2="792.1309" gradientTransform="matrix(-1 0 0 1 34.5957 -748.9805)">
	<stop  offset="0" style="stop-color:#CB9B69"/>
	<stop  offset="0.3516" style="stop-color:#E5CE95"/>
	<stop  offset="0.7043" style="stop-color:#E2C685"/>
	<stop  offset="1" style="stop-color:#CB9B69"/>
</linearGradient>
<path fill="none" stroke="url(#SVGID_3_)" stroke-miterlimit="10" d="M14.023,32.463c-0.334,15.539,0.469,15.883,0.998,18.529
	c0.357,1.787,0.928,2.357,2.601,2.357s1.739-0.912,1.966-1.502c0.243-0.634,0-17.828,0-17.828"/>
<path fill="none" stroke="#ff7071" stroke-width="1.5" stroke-linecap="round" stroke-linejoin="round" stroke-miterlimit="10" d="
	M29.309,74.102c-0.248-9.506,0.604-20.869-2.379-35.208c-0.441-2.128-0.906-4.568-2.781-6.144c-0.625-0.528-0.795-0.7-1.676-0.729
	c-2.572-0.092-2.172,2.003-2.887,2c-1.068-0.005-0.453-3.092-1.654-3.672c-0.527-0.255-1.509-0.332-1.945-0.067
	c-1.385,0.847-1.301,2.128-1.963,2.18c-0.565,0.045-0.568-1.346-1.008-1.779c-0.631-0.618-1.656-0.338-2.188-0.164
	c-1.53,0.498-2.628,2.625-3.13,3.976c-1.383,3.736-1.444,7.907-1.74,11.903c-0.521,6.97-0.796,13.627-1.291,21.608
	c0.035,1.753,0.386,4.186,0.18,5.387"/>
<linearGradient id="SVGID_4_" gradientUnits="userSpaceOnUse" x1="315.9375" y1="-1268.4326" x2="315.9375" y2="-1244.9448" gradientTransform="matrix(-0.8932 0 0 -0.8901 298.7576 -1039.0364)">
	<stop  offset="0.0538" style="stop-color:#E6E6E6"/>
	<stop  offset="0.5" style="stop-color:#EDF4FA"/>
	<stop  offset="0.6171" style="stop-color:#E9F0F7"/>
	<stop  offset="0.7385" style="stop-color:#DCE6EE"/>
	<stop  offset="0.8617" style="stop-color:#C8D3E0"/>
	<stop  offset="0.9856" style="stop-color:#ABBACC"/>
	<stop  offset="1" style="stop-color:#A7B7C9"/>
</linearGradient>
<path fill="url(#SVGID_4_)" d="M9.055,89.995c5.767-0.062,11.551-0.222,17.264-1.396c2.849-0.584,4.537-2.508,4.072-4.811
	c-0.9-4.516-1.033-5.882-1.137-9.688c-1.667-1.496-5.92-3.969-9.505-4.597c-0.845-0.147-7.071-0.771-10.083-0.137
	C7.848,69.75,5.876,71.48,4.73,72.93c-0.817,4.076-2.12,5.563-2.074,9.529C2.712,87.542,4.166,90.039,9.055,89.995z"/>
</svg>
