<?xml version="1.0" encoding="utf-8"?>
<!-- Generator: Adobe Illustrator 16.0.0, SVG Export Plug-In . SVG Version: 6.00 Build 0)  -->
<!DOCTYPE svg PUBLIC "-//W3C//DTD SVG 1.1//EN" "http://www.w3.org/Graphics/SVG/1.1/DTD/svg11.dtd">
<svg version="1.1" id="Layer_2" xmlns="http://www.w3.org/2000/svg" xmlns:xlink="http://www.w3.org/1999/xlink" x="0px" y="0px"
	 width="34px" height="92px" viewBox="0 0 34 92" enable-background="new 0 0 34 92" xml:space="preserve">
<linearGradient id="SVGID_1_" gradientUnits="userSpaceOnUse" x1="297.8652" y1="-373.0361" x2="297.8652" y2="-349.6772" gradientTransform="matrix(1 0 0 -1 -280.5996 -281.9902)">
	<stop  offset="0.0538" style="stop-color:#E6E6E6"/>
	<stop  offset="0.5" style="stop-color:#EDF4FA"/>
	<stop  offset="0.6171" style="stop-color:#E9F0F7"/>
	<stop  offset="0.7385" style="stop-color:#DCE6EE"/>
	<stop  offset="0.8617" style="stop-color:#C8D3E0"/>
	<stop  offset="0.9856" style="stop-color:#ABBACC"/>
	<stop  offset="1" style="stop-color:#A7B7C9"/>
</linearGradient>
<path fill="url(#SVGID_1_)" stroke="#A3A3A3" stroke-width="2" stroke-linecap="round" stroke-linejoin="round" stroke-miterlimit="10" d="
	M5.823,67.814c-0.124,3.244-0.454,8.647-0.5,12.242c-0.108,8.277-1.431,7.311,5.645,10.258c0.83,0.345,5.27,1.179,9.798,0.428
	c1.08-0.18,3.623-0.733,4.688-1.098c4.214-1.437,4.274-2.028,3.603-6.229c-0.309-1.913-0.912-3.773-1.347-5.663
	c-0.793-3.424-2.379-6.532-2.998-10.065"/>
<radialGradient id="SVGID_2_" cx="293.8516" cy="-327.6523" r="20.7125" gradientTransform="matrix(1 0 0 -0.9908 -280.5996 -282.207)" gradientUnits="userSpaceOnUse">
	<stop  offset="0" style="stop-color:#FFFCC7"/>
	<stop  offset="1" style="stop-color:#E8BD6E"/>
</radialGradient>
<path fill="url(#SVGID_2_)" d="M6.749,68.271c2.853-2.222,3.593-3.358,9.017-2.931c3.103,0.244,6.645,0.906,8.548,2.368
	c-0.09-0.523-0.16-1.055-0.201-1.6c-0.953-12.307-3.676-24.266-7.609-35.884c-1.502-4.434-3.539-8.611-6.545-12.172
	c-1.258-1.492-2.605-2.923-4.679-2.375c-2.36,0.626-2.71,2.876-2.999,4.965c-0.176,1.26-0.062,2.578,0.012,3.865
	c0.841,14.945,2.614,29.826,3.143,44.797L6.749,68.271z"/>
<path fill="none" stroke="#ff7071" stroke-width="1.5" stroke-linecap="round" stroke-linejoin="round" stroke-miterlimit="10" d="
	M24.938,68.759c-0.953-12.42-4.5-26.167-8.434-37.893c-1.502-4.475-3.539-8.69-6.545-12.285c-1.258-1.506-2.605-2.95-4.679-2.397
	c-2.36,0.632-2.71,2.903-2.999,5.011c-0.176,1.272-0.062,2.602,0.012,3.9c0.841,15.083,2.335,29.086,2.863,44.197"/>
<linearGradient id="SVGID_3_" gradientUnits="userSpaceOnUse" x1="297.8652" y1="-373.0361" x2="297.8652" y2="-346.5176" gradientTransform="matrix(1 0 0 -1 -280.5996 -281.9902)">
	<stop  offset="0.0538" style="stop-color:#E6E6E6"/>
	<stop  offset="0.5" style="stop-color:#EDF4FA"/>
	<stop  offset="0.6171" style="stop-color:#E9F0F7"/>
	<stop  offset="0.7385" style="stop-color:#DCE6EE"/>
	<stop  offset="0.8617" style="stop-color:#C8D3E0"/>
	<stop  offset="0.9856" style="stop-color:#ABBACC"/>
	<stop  offset="1" style="stop-color:#A7B7C9"/>
</linearGradient>
<path fill="url(#SVGID_3_)" d="M29.057,83.416c-0.309-1.913-0.912-3.773-1.347-5.663c-0.793-3.424-2.379-6.532-2.998-10.065
	c-1.97-1.473-5.358-3.261-8.577-3.155c-5.639,0.183-5.699,0.883-9.018,2.468c-0.487,0.232-1.294,0.814-1.294,0.814
	c-0.124,3.244-0.454,8.647-0.5,12.242c-0.108,8.277-1.431,7.311,5.645,10.258c0.83,0.345,5.27,1.179,9.798,0.428
	c1.08-0.18,3.623-0.733,4.688-1.098C29.668,88.208,29.729,87.616,29.057,83.416z"/>
</svg>
