<?xml version="1.0" encoding="utf-8"?>
<!-- Generator: Adobe Illustrator 16.0.0, SVG Export Plug-In . SVG Version: 6.00 Build 0)  -->
<!DOCTYPE svg PUBLIC "-//W3C//DTD SVG 1.1//EN" "http://www.w3.org/Graphics/SVG/1.1/DTD/svg11.dtd">
<svg version="1.1" id="Layer_3" xmlns="http://www.w3.org/2000/svg" xmlns:xlink="http://www.w3.org/1999/xlink" x="0px" y="0px"
	 width="34px" height="92px" viewBox="0 0 34 92" enable-background="new 0 0 34 92" xml:space="preserve">
<radialGradient id="SVGID_1_" cx="576.7109" cy="789.0723" r="22.3201" gradientTransform="matrix(1 0 0 1 -561.1992 -748.9805)" gradientUnits="userSpaceOnUse">
	<stop  offset="0" style="stop-color:#FFFCC7"/>
	<stop  offset="1" style="stop-color:#E8BD6E"/>
</radialGradient>
<path fill="url(#SVGID_1_)" d="M7.389,64.092c3.189-2.609,2.982-4.714,9.047-4.211c3.583,0.297,9.085,3.379,11.485,5.217
	c-0.719-5.539-1.802-14.779-2.913-20.271c-1.787-8.841-3.371-17.67-7.445-25.729c-1.879-3.718-3.579-8.716-8.33-7.95
	C4.446,11.919,4.88,17.295,4.407,21.2C2.673,35.491,3.14,54.761,3.214,69.115L7.389,64.092z"/>
<path fill="none" stroke="#ff7071" stroke-width="1.5" stroke-linecap="round" stroke-linejoin="round" stroke-miterlimit="10" d="
	M28.332,64.475c-0.719-5.539-2.212-14.156-3.323-19.647c-1.788-8.841-3.372-17.67-7.446-25.729c-1.878-3.718-3.578-8.716-8.329-7.95
	C4.446,11.919,4.88,17.295,4.407,21.2C2.673,35.491,2.811,54.33,2.885,68.686"/>
<linearGradient id="SVGID_2_" gradientUnits="userSpaceOnUse" x1="577.6357" y1="839.2412" x2="577.6357" y2="814.0781" gradientTransform="matrix(1 0 0 1 -561.1992 -748.9805)">
	<stop  offset="0.0538" style="stop-color:#E6E6E6"/>
	<stop  offset="0.5" style="stop-color:#EDF4FA"/>
	<stop  offset="0.6171" style="stop-color:#E9F0F7"/>
	<stop  offset="0.7385" style="stop-color:#DCE6EE"/>
	<stop  offset="0.8617" style="stop-color:#C8D3E0"/>
	<stop  offset="0.9856" style="stop-color:#ABBACC"/>
	<stop  offset="1" style="stop-color:#A7B7C9"/>
</linearGradient>
<path fill="url(#SVGID_2_)" stroke="#A3A3A3" stroke-width="2" stroke-linecap="round" stroke-linejoin="round" stroke-miterlimit="10" d="
	M3.21,69.116c-0.362,5.194-0.012,7.903-0.312,13.68c-0.156,5.903,1.007,7.046,6.854,7.132c4.314,0.065,8.564,0.639,12.949,0.114
	c6.514-0.771,7.773-1.335,7.142-8.022c-0.608-6.433-1.048-10.519-1.921-16.922"/>
<linearGradient id="SVGID_3_" gradientUnits="userSpaceOnUse" x1="577.6357" y1="839.2432" x2="577.6357" y2="806.3359" gradientTransform="matrix(1 0 0 1 -561.1992 -748.9805)">
	<stop  offset="0.0538" style="stop-color:#E6E6E6"/>
	<stop  offset="0.5" style="stop-color:#EDF4FA"/>
	<stop  offset="0.6171" style="stop-color:#E9F0F7"/>
	<stop  offset="0.7385" style="stop-color:#DCE6EE"/>
	<stop  offset="0.8617" style="stop-color:#C8D3E0"/>
	<stop  offset="0.9856" style="stop-color:#ABBACC"/>
	<stop  offset="1" style="stop-color:#A7B7C9"/>
</linearGradient>
<path fill="url(#SVGID_3_)" d="M29.843,82.02c-0.608-6.433-1.048-10.519-1.921-16.922c-1.824-1.963-7.9-7.421-11.485-7.703
	c-6.065-0.479-7.803,3.588-10.1,6.506c0,0-3.01,3.529-3.127,5.217c-0.362,5.193-0.012,7.902-0.312,13.68
	C2.742,88.7,3.905,89.843,9.752,89.93c4.314,0.064,8.564,0.639,12.949,0.113C29.215,89.271,30.475,88.707,29.843,82.02z"/>
</svg>
