<?xml version="1.0" encoding="utf-8"?>
<!-- Generator: Adobe Illustrator 16.0.0, SVG Export Plug-In . SVG Version: 6.00 Build 0)  -->
<!DOCTYPE svg PUBLIC "-//W3C//DTD SVG 1.1//EN" "http://www.w3.org/Graphics/SVG/1.1/DTD/svg11.dtd">
<svg version="1.1" id="Layer_2" xmlns="http://www.w3.org/2000/svg" xmlns:xlink="http://www.w3.org/1999/xlink" x="0px" y="0px"
	 width="38px" height="92px" viewBox="0 0 38 92" enable-background="new 0 0 38 92" xml:space="preserve">
<linearGradient id="SVGID_1_" gradientUnits="userSpaceOnUse" x1="26.8896" y1="839.5596" x2="26.8896" y2="818.5332" gradientTransform="matrix(-1 0 0 1 45.3086 -748.9805)">
	<stop  offset="0.0538" style="stop-color:#E6E6E6"/>
	<stop  offset="0.5" style="stop-color:#EDF4FA"/>
	<stop  offset="0.6171" style="stop-color:#E9F0F7"/>
	<stop  offset="0.7385" style="stop-color:#DCE6EE"/>
	<stop  offset="0.8617" style="stop-color:#C8D3E0"/>
	<stop  offset="0.9856" style="stop-color:#ABBACC"/>
	<stop  offset="1" style="stop-color:#A7B7C9"/>
</linearGradient>
<path fill="url(#SVGID_1_)" stroke="#A3A3A3" stroke-width="2" stroke-linecap="round" stroke-linejoin="round" stroke-miterlimit="10" d="
	M4.84,69.552c-0.97,4.984-3.083,7.629-3.277,12.47c-0.104,2.639,0.195,3.746,1.835,5.666c1.727,2.024,5.347,2.806,9.733,2.375
	c3.498-0.343,6.819-0.271,10.336,0.306c0.78,0.127,2.132,0.17,2.851,0.21c1.581-0.031,2.504-0.228,4.081-0.556
	c3.095-0.982,4.97-4.012,4.894-7.129c0-0.021-0.139-2.029-0.143-2.053c-0.657-3.646-0.813-3.672-1.068-5.909
	c-0.151-1.124-0.311-2.498-0.433-4.194"/>
<radialGradient id="SVGID_2_" cx="25.21" cy="796.1875" r="20.2547" gradientTransform="matrix(-1 0 0 1 45.3086 -748.9805)" gradientUnits="userSpaceOnUse">
	<stop  offset="0" style="stop-color:#FFFCC7"/>
	<stop  offset="1" style="stop-color:#E8BD6E"/>
</radialGradient>
<path fill="url(#SVGID_2_)" d="M35.559,38.047c0.068-2.945-0.084-5.867-1.024-8.677c-1.031-3.066-1.433-6.406-5.736-4.837
	c-0.198,0.071-1.021,0.763-1.655,3.244c-0.175,0.683-1.072,1.256-1.398-1.4c-0.547-4.426-5.289-3.488-5.705-1.04
	c-0.215,1.277-0.414,3.941-1.612,3.585c-1.719-0.509-1.083-5.843-4.809-5.82c-3.082,0.02-3.758,3.376-4.498,5.826
	C7.096,35.641,5.848,42.467,5.86,49.55c0.012,6.697-0.177,13.913-1.235,20.513c1.386-1.743,3.736-2.724,5.875-3.188
	c3.604-0.785,11.173,0.004,12.188,0.188c3.752,0.68,8.186,2.597,10.5,4.25C32.451,59.021,35.311,49.301,35.559,38.047z"/>
<linearGradient id="SVGID_3_" gradientUnits="userSpaceOnUse" x1="18.0146" y1="788.7354" x2="28.2012" y2="788.7354" gradientTransform="matrix(-1 0 0 1 45.3086 -748.9805)">
	<stop  offset="0" style="stop-color:#CB9B69"/>
	<stop  offset="0.3516" style="stop-color:#E5CE95"/>
	<stop  offset="0.7043" style="stop-color:#E2C685"/>
	<stop  offset="1" style="stop-color:#CB9B69"/>
</linearGradient>
<path fill="none" stroke="url(#SVGID_3_)" stroke-miterlimit="10" d="M18.424,28.922c-2.353,18.219,1.133,21.703,1.133,21.703
	c1.625-1.188,4.403-4.625,5.59-10.413c1.08-5.268,1.649-11.941,1.649-11.941"/>
<path fill="none" stroke="#ff7071" stroke-width="1.5" stroke-linecap="round" stroke-linejoin="round" stroke-miterlimit="10" d="
	M33.969,72.328c-0.729-12.27,1.342-23.039,1.59-34.281c0.068-2.945-0.084-5.867-1.024-8.677c-1.031-3.066-1.433-6.406-5.736-4.837
	c-0.198,0.071-1.021,0.763-1.655,3.244c-0.175,0.683-1.072,1.256-1.398-1.4c-0.547-4.426-5.289-3.488-5.705-1.04
	c-0.215,1.277-0.414,3.941-1.612,3.585c-1.719-0.509-1.083-5.843-4.809-5.82c-3.082,0.02-3.758,3.376-4.498,5.826
	C7.096,35.641,5.848,42.467,5.86,49.55c0.011,6.694-0.163,13.353-1.22,19.95"/>
<linearGradient id="SVGID_4_" gradientUnits="userSpaceOnUse" x1="26.8896" y1="839.5596" x2="26.8896" y2="814.7217" gradientTransform="matrix(-1 0 0 1 45.3086 -748.9805)">
	<stop  offset="0.0538" style="stop-color:#E6E6E6"/>
	<stop  offset="0.5" style="stop-color:#EDF4FA"/>
	<stop  offset="0.6171" style="stop-color:#E9F0F7"/>
	<stop  offset="0.7385" style="stop-color:#DCE6EE"/>
	<stop  offset="0.8617" style="stop-color:#C8D3E0"/>
	<stop  offset="0.9856" style="stop-color:#ABBACC"/>
	<stop  offset="1" style="stop-color:#A7B7C9"/>
</linearGradient>
<path fill="url(#SVGID_4_)" d="M3.397,87.688c1.727,2.024,5.347,2.806,9.733,2.375c3.498-0.343,6.819-0.271,10.336,0.306
	c0.78,0.127,2.132,0.17,2.851,0.21c1.581-0.031,2.504-0.228,4.081-0.556c3.095-0.982,4.97-4.012,4.894-7.129
	c0-0.021-0.139-2.029-0.143-2.053c-0.657-3.646-0.813-3.672-1.068-5.909c-0.151-1.124-0.311-2.498-0.433-4.194
	c-2.141-1.842-6.537-3.389-10.605-4.123c-1.006-0.182-8.691-1.393-12.261-0.617c-2.158,0.467-4.582,1.786-5.942,3.555
	c-0.97,4.984-3.083,7.629-3.277,12.47C1.458,84.66,1.757,85.768,3.397,87.688z"/>
</svg>
