<?xml version="1.0" encoding="utf-8"?>
<!-- Generator: Adobe Illustrator 16.0.0, SVG Export Plug-In . SVG Version: 6.00 Build 0)  -->
<!DOCTYPE svg PUBLIC "-//W3C//DTD SVG 1.1//EN" "http://www.w3.org/Graphics/SVG/1.1/DTD/svg11.dtd">
<svg version="1.1" id="Layer_2" xmlns="http://www.w3.org/2000/svg" xmlns:xlink="http://www.w3.org/1999/xlink" x="0px" y="0px"
	 width="38px" height="92px" viewBox="0 0 38 92" enable-background="new 0 0 38 92" xml:space="preserve">
<linearGradient id="SVGID_1_" gradientUnits="userSpaceOnUse" x1="581.3066" y1="839.8711" x2="581.3066" y2="818.5801" gradientTransform="matrix(1 0 0 1 -561.1992 -748.9805)">
	<stop  offset="0.0538" style="stop-color:#E6E6E6"/>
	<stop  offset="0.5" style="stop-color:#EDF4FA"/>
	<stop  offset="0.6171" style="stop-color:#E9F0F7"/>
	<stop  offset="0.7385" style="stop-color:#DCE6EE"/>
	<stop  offset="0.8617" style="stop-color:#C8D3E0"/>
	<stop  offset="0.9856" style="stop-color:#ABBACC"/>
	<stop  offset="1" style="stop-color:#A7B7C9"/>
</linearGradient>
<path fill="url(#SVGID_1_)" stroke="#A3A3A3" stroke-width="1.9891" stroke-linecap="round" stroke-linejoin="round" stroke-miterlimit="10" d="
	M4.903,70.8c-0.122,1.718-0.279,3.109-0.432,4.247c-0.253,2.266-0.409,2.292-1.066,5.984c-0.004,0.023-0.14,2.057-0.141,2.078
	c-0.075,3.156,1.796,6.224,4.885,7.219c1.575,0.331,2.497,0.531,4.075,0.563c0.716-0.041,2.068-0.084,2.846-0.213
	c3.51-0.584,6.826-0.656,10.318-0.31c4.379,0.437,7.993-0.354,9.718-2.404c1.637-1.944,1.936-3.065,1.83-5.737
	c-0.193-4.902-2.303-7.58-3.271-12.627"/>
<radialGradient id="SVGID_2_" cx="579.6494" cy="795.6953" r="19.9604" gradientTransform="matrix(1 0 0 1 -561.1992 -748.9805)" gradientUnits="userSpaceOnUse">
	<stop  offset="0" style="stop-color:#FFFCC7"/>
	<stop  offset="1" style="stop-color:#E8BD6E"/>
</radialGradient>
<path fill="url(#SVGID_2_)" d="M5.549,70.328c2.315-1.653,6.324-3.023,10.076-3.703C16.64,66.441,24.396,65.215,28,66
	c2.139,0.464,4.531,1.764,5.917,3.507c-1.058-6.6-1.231-13.26-1.22-19.957c0.013-7.083-1.235-13.909-3.26-20.622
	c-0.74-2.45-1.416-5.806-4.498-5.826c-3.727-0.023-3.09,5.311-4.81,5.82c-1.198,0.356-1.396-2.308-1.612-3.585
	c-0.416-2.448-5.158-3.386-5.704,1.04c-0.327,2.656-1.226,2.083-1.399,1.4c-0.637-2.481-1.458-3.173-1.656-3.244
	c-4.305-1.569-4.705,1.771-5.736,4.837c-0.942,2.81-1.094,5.732-1.027,8.677C3.245,49.301,6.285,58.037,5.549,70.328z"/>
<linearGradient id="SVGID_3_" gradientUnits="userSpaceOnUse" x1="572.4619" y1="788.7354" x2="582.6475" y2="788.7354" gradientTransform="matrix(1 0 0 1 -561.1992 -748.9805)">
	<stop  offset="0" style="stop-color:#CB9B69"/>
	<stop  offset="0.3516" style="stop-color:#E5CE95"/>
	<stop  offset="0.7043" style="stop-color:#E2C685"/>
	<stop  offset="1" style="stop-color:#CB9B69"/>
</linearGradient>
<path fill="none" stroke="url(#SVGID_3_)" stroke-miterlimit="10" d="M11.76,28.271c0,0,0.569,6.673,1.649,11.941
	C14.596,46,17.375,49.438,19,50.625c0,0,3.484-3.484,1.132-21.703"/>
<path fill="none" stroke="#ff7071" stroke-width="1.5" stroke-linecap="round" stroke-linejoin="round" stroke-miterlimit="10" d="
	M33.916,69.5c-1.057-6.598-1.23-13.256-1.219-19.95c0.013-7.083-1.235-13.909-3.26-20.622c-0.74-2.45-1.416-5.806-4.498-5.826
	c-3.727-0.023-3.09,5.311-4.81,5.82c-1.198,0.356-1.396-2.308-1.612-3.585c-0.416-2.448-5.158-3.386-5.704,1.04
	c-0.327,2.656-1.226,2.083-1.399,1.4c-0.637-2.481-1.458-3.173-1.656-3.244c-4.305-1.569-4.705,1.771-5.736,4.837
	c-0.942,2.81-1.094,5.732-1.027,8.677c0.249,11.242,2.526,22.016,1.798,34.285"/>
<linearGradient id="SVGID_4_" gradientUnits="userSpaceOnUse" x1="581.3066" y1="839.8711" x2="581.3066" y2="814.6113" gradientTransform="matrix(1 0 0 1 -561.1992 -748.9805)">
	<stop  offset="0.0538" style="stop-color:#E6E6E6"/>
	<stop  offset="0.5" style="stop-color:#EDF4FA"/>
	<stop  offset="0.6171" style="stop-color:#E9F0F7"/>
	<stop  offset="0.7385" style="stop-color:#DCE6EE"/>
	<stop  offset="0.8617" style="stop-color:#C8D3E0"/>
	<stop  offset="0.9856" style="stop-color:#ABBACC"/>
	<stop  offset="1" style="stop-color:#A7B7C9"/>
</linearGradient>
<path fill="url(#SVGID_4_)" d="M36.936,82.227c-0.193-4.902-2.303-7.58-3.271-12.627c-0.992-1.818-1.505-2.954-6.117-3.787
	c-3.592-0.648-11.052,0.629-12.056,0.813c-4.061,0.744-8.451,2.311-10.588,4.175c-0.122,1.718-0.279,3.109-0.432,4.247
	c-0.253,2.266-0.409,2.292-1.066,5.984c-0.004,0.023-0.14,2.057-0.141,2.078c-0.075,3.156,1.796,6.224,4.885,7.219
	c1.575,0.331,2.497,0.531,4.075,0.563c0.716-0.041,2.068-0.084,2.846-0.213c3.51-0.584,6.826-0.656,10.318-0.31
	c4.379,0.437,7.993-0.354,9.718-2.404C36.742,86.02,37.041,84.898,36.936,82.227z"/>
</svg>
